<?xml version="1.0" encoding="UTF-8" standalone="no"?>
<!-- Created with Inkscape (http://www.inkscape.org/) -->

<svg
   xmlns:dc="http://purl.org/dc/elements/1.1/"
   xmlns:cc="http://creativecommons.org/ns#"
   xmlns:rdf="http://www.w3.org/1999/02/22-rdf-syntax-ns#"
   xmlns:svg="http://www.w3.org/2000/svg"
   xmlns="http://www.w3.org/2000/svg"
   xmlns:xlink="http://www.w3.org/1999/xlink"
   xmlns:sodipodi="http://sodipodi.sourceforge.net/DTD/sodipodi-0.dtd"
   xmlns:inkscape="http://www.inkscape.org/namespaces/inkscape"
   sodipodi:docname="lasercut-parts.svg"
   inkscape:version="0.48.4 r9939"
   version="1.1"
   id="svg2"
   height="1977.1653"
   width="1881.496">
  <sodipodi:namedview
     id="base"
     pagecolor="#ffffff"
     bordercolor="#666666"
     borderopacity="1.0"
     inkscape:pageopacity="0.0"
     inkscape:pageshadow="2"
     inkscape:zoom="0.318638"
     inkscape:cx="940.74799"
     inkscape:cy="988.58264"
     inkscape:document-units="mm"
     inkscape:current-layer="layer1"
     showgrid="true"
     units="mm"
     inkscape:window-width="1600"
     inkscape:window-height="850"
     inkscape:window-x="0"
     inkscape:window-y="25"
     inkscape:window-maximized="1"
     objecttolerance="20">
    <inkscape:grid
       spacingy="10mm"
       spacingx="10mm"
       units="mm"
       snapvisiblegridlinesonly="true"
       enabled="true"
       visible="true"
       empspacing="5"
       id="grid2990"
       type="xygrid" />
  </sodipodi:namedview>
  <defs
     id="defs4">
    <pattern
       height="8"
       id="Hatch"
       patternUnits="userSpaceOnUse"
       width="8"
       x="0"
       y="0">
      <path
         d="M8 4 l-4,4"
         linecap="square"
         stroke="#000000"
         stroke-width="0.25"
         id="path3477" />
      <path
         d="M6 2 l-4,4"
         linecap="square"
         stroke="#000000"
         stroke-width="0.25"
         id="path3479" />
      <path
         d="M4 0 l-4,4"
         linecap="square"
         stroke="#000000"
         stroke-width="0.25"
         id="path3481" />
    </pattern>
    <marker
       id="DistanceX"
       orient="auto"
       refX="0.0"
       refY="0.0"
       style="overflow:visible">
      <path
         d="M 3,-3 L -3,3 M 0,-5 L  0,5"
         style="stroke:#000000; stroke-width:0.5"
         id="path3474" />
    </marker>
    <pattern
       y="0"
       x="0"
       width="8"
       patternUnits="userSpaceOnUse"
       id="Hatch-0"
       height="8">
      <path
         id="path8909"
         stroke-width="0.25"
         stroke="#000000"
         linecap="square"
         d="M8 4 l-4,4" />
      <path
         id="path8911"
         stroke-width="0.25"
         stroke="#000000"
         linecap="square"
         d="M6 2 l-4,4" />
      <path
         id="path8913"
         stroke-width="0.25"
         stroke="#000000"
         linecap="square"
         d="M4 0 l-4,4" />
    </pattern>
    <marker
       style="overflow:visible"
       refY="0.0"
       refX="0.0"
       orient="auto"
       id="DistanceX-8">
      <path
         id="path8906"
         style="stroke:#000000; stroke-width:0.5"
         d="M 3,-3 L -3,3 M 0,-5 L  0,5" />
    </marker>
  </defs>
  <metadata
     id="metadata7">
    <rdf:RDF>
      <cc:Work
         rdf:about="">
        <dc:format>image/svg+xml</dc:format>
        <dc:type
           rdf:resource="http://purl.org/dc/dcmitype/StillImage" />
        <dc:title />
      </cc:Work>
    </rdf:RDF>
  </metadata>
  <g
     transform="translate(0,924.80444)"
     id="layer1"
     inkscape:groupmode="layer"
     inkscape:label="Layer 1">
    <g
       id="g8468">
      <g
         transform="translate(532.024,520.28884)"
         inkscape:label="Gear165"
         id="g6535">
        <path
           inkscape:connector-curvature="0"
           d="m 518.796,-7.119 6.392,2.119 6.383,2.388 0,5.224 -6.383,2.388 -6.392,2.119 -0.105,5.518 6.306,2.361 6.288,2.629 -0.199,5.221 -6.47,2.143 -6.467,1.873 -0.315,5.511 6.212,2.599 6.183,2.866 -0.398,5.21 -6.546,1.895 -6.534,1.626 -0.525,5.495 6.108,2.834 6.07,3.099 -0.596,5.191 -6.614,1.644 -6.591,1.377 -0.733,5.47 5.995,3.064 5.948,3.329 -0.793,5.164 -6.672,1.391 -6.639,1.125 -0.941,5.439 5.875,3.29 5.816,3.552 -0.988,5.131 -6.721,1.136 -6.676,0.871 -1.148,5.399 5.745,3.511 5.677,3.772 -1.183,5.089 -6.759,0.879 -6.705,0.616 -1.352,5.352 5.607,3.727 5.53,3.985 -1.377,5.04 -6.787,0.622 -6.723,0.36 -1.555,5.297 5.461,3.938 5.374,4.192 -1.568,4.984 -6.805,0.363 -6.733,0.104 -1.755,5.234 5.307,4.143 5.21,4.394 -1.756,4.921 -6.814,0.103 -6.732,-0.152 -1.953,5.162 5.146,4.343 5.038,4.589 -1.941,4.85 -6.814,-0.156 -6.721,-0.408 -2.149,5.084 4.977,4.535 4.861,4.778 -2.125,4.773 -6.803,-0.415 -6.7,-0.664 -2.341,4.999 4.801,4.721 4.675,4.959 -2.306,4.689 -6.782,-0.674 -6.67,-0.919 -2.529,4.906 4.617,4.901 4.483,5.133 -2.482,4.598 -6.751,-0.932 -6.631,-1.172 -2.714,4.807 4.427,5.073 4.285,5.3 -2.656,4.5 -6.711,-1.188 -6.581,-1.424 -2.895,4.7 4.231,5.238 4.079,5.459 -2.824,4.396 -6.661,-1.443 -6.522,-1.673 -3.073,4.586 4.029,5.395 3.869,5.611 -2.99,4.285 -6.601,-1.696 -6.454,-1.92 -3.245,4.466 3.821,5.544 3.652,5.755 -3.151,4.167 -6.532,-1.945 -6.376,-2.164 -3.412,4.339 3.607,5.686 3.43,5.889 -3.307,4.044 -6.454,-2.192 -6.288,-2.406 -3.575,4.206 3.387,5.819 3.204,6.016 -3.459,3.916 -6.365,-2.437 -6.193,-2.643 -3.732,4.066 3.163,5.944 2.973,6.133 -3.606,3.782 -6.267,-2.678 -6.088,-2.877 -3.884,3.922 2.935,6.06 2.736,6.242 -3.747,3.641 -6.161,-2.914 -5.973,-3.106 -4.031,3.77 2.702,6.168 2.497,6.341 -3.883,3.496 -6.046,-3.146 -5.851,-3.332 -4.171,3.615 2.465,6.265 2.254,6.432 -4.013,3.346 -5.922,-3.374 -5.72,-3.552 -4.306,3.453 2.225,6.355 2.008,6.513 -4.138,3.191 -5.789,-3.598 -5.58,-3.767 -4.435,3.287 1.981,6.435 1.758,6.585 -4.256,3.03 -5.647,-3.815 -5.433,-3.977 -4.557,3.116 1.735,6.506 1.506,6.647 -4.368,2.866 -5.498,-4.027 -5.278,-4.181 -4.672,2.94 1.486,6.567 1.252,6.699 -4.474,2.698 -5.341,-4.233 -5.115,-4.379 -4.78,2.76 1.235,6.619 0.996,6.742 -4.574,2.526 -5.176,-4.434 -4.944,-4.571 -4.882,2.576 0.982,6.661 0.738,6.776 -4.666,2.35 -5.004,-4.628 -4.766,-4.756 -4.977,2.388 0.728,6.694 0.48,6.799 -4.753,2.17 -4.823,-4.815 -4.583,-4.933 -5.063,2.197 0.472,6.717 0.221,6.811 -4.832,1.988 -4.637,-4.995 -4.391,-5.104 -5.144,2.003 0.217,6.729 -0.039,6.816 -4.904,1.802 -4.443,-5.168 -4.194,-5.268 -5.216,1.806 -0.04,6.733 -0.298,6.809 -4.969,1.614 -4.243,-5.333 -3.99,-5.424 -5.282,1.606 -0.296,6.727 -0.557,6.792 -5.027,1.424 -4.037,-5.491 -3.781,-5.571 -5.338,1.403 -0.552,6.711 -0.816,6.766 -5.077,1.232 -3.825,-5.641 -3.566,-5.711 -5.388,1.198 -0.807,6.685 -1.073,6.731 -5.12,1.037 -3.608,-5.782 -3.346,-5.843 -5.43,0.993 -1.061,6.649 -1.328,6.685 -5.156,0.842 -3.385,-5.916 -3.121,-5.966 -5.463,0.786 -1.314,6.603 -1.581,6.63 -5.185,0.645 -3.157,-6.04 -2.892,-6.081 -5.489,0.577 -1.564,6.549 -1.833,6.565 -5.206,0.447 -2.925,-6.156 -2.658,-6.187 -5.507,0.368 -1.812,6.485 -2.081,6.49 -5.219,0.248 -2.689,-6.262 -2.42,-6.284 -5.518,0.158 -2.058,6.411 -2.326,6.406 -5.225,0.05 -2.448,-6.361 -2.179,-6.37 -5.52,-0.053 -2.3,6.328 -2.569,6.313 -5.223,-0.149 -2.204,-6.449 -1.936,-6.45 -5.513,-0.262 -2.54,6.236 -2.807,6.21 -5.213,-0.348 -1.957,-6.528 -1.689,-6.518 -5.499,-0.473 -2.776,6.135 -3.041,6.099 -5.196,-0.546 -1.708,-6.598 -1.439,-6.578 -5.477,-0.681 -3.007,6.024 -3.272,5.979 -5.171,-0.743 -1.455,-6.659 -1.188,-6.627 -5.447,-0.89 -3.234,5.906 -3.497,5.85 -5.14,-0.94 -1.2,-6.709 -0.934,-6.668 -5.41,-1.096 -3.457,5.778 -3.717,5.713 -5.1,-1.135 -0.944,-6.75 -0.68,-6.699 -5.364,-1.301 -3.674,5.643 -3.932,5.566 -5.053,-1.328 -0.686,-6.781 -0.424,-6.72 -5.311,-1.504 -3.886,5.499 -4.141,5.413 -4.999,-1.52 -0.428,-6.802 -0.168,-6.731 -5.25,-1.706 -4.092,5.347 -4.344,5.252 -4.938,-1.709 -0.168,-6.814 0.088,-6.732 -5.181,-1.905 -4.293,5.187 -4.541,5.083 -4.868,-1.896 0.091,-6.815 0.344,-6.724 -5.105,-2.1 -4.487,5.02 -4.731,4.905 -4.793,-2.079 0.35,-6.807 0.6,-6.706 -5.02,-2.293 -4.676,4.845 -4.914,4.722 -4.711,-2.26 0.61,-6.788 0.855,-6.679 -4.93,-2.482 -4.857,4.663 -5.09,4.532 -4.621,-2.438 0.867,-6.76 1.109,-6.642 -4.832,-2.668 -5.031,4.476 -5.259,4.334 -4.525,-2.612 1.124,-6.722 1.361,-6.595 -4.727,-2.85 -5.197,4.281 -5.421,4.131 -4.422,-2.783 1.379,-6.674 1.611,-6.538 -4.615,-3.028 -5.356,4.08 -5.574,3.922 -4.313,-2.95 1.632,-6.617 1.859,-6.471 -4.497,-3.202 -5.507,3.873 -5.72,3.707 -4.197,-3.111 1.883,-6.551 2.103,-6.396 -4.371,-3.371 -5.651,3.661 -5.856,3.486 -4.076,-3.268 2.131,-6.474 2.345,-6.312 -4.239,-3.534 -5.787,3.442 -5.985,3.261 -3.948,-3.421 2.376,-6.388 2.584,-6.218 -4.102,-3.693 -5.914,3.22 -6.104,3.03 -3.816,-3.569 2.618,-6.293 2.819,-6.114 -3.959,-3.847 -6.032,2.992 -6.215,2.796 -3.677,-3.712 2.855,-6.189 3.05,-6.003 -3.809,-3.994 -6.141,2.76 -6.318,2.558 -3.533,-3.85 3.089,-6.075 3.276,-5.883 -3.654,-4.137 -6.242,2.525 -6.41,2.315 -3.384,-3.981 3.318,-5.953 3.497,-5.754 -3.494,-4.273 -6.334,2.286 -6.493,2.069 -3.23,-4.107 3.542,-5.823 3.714,-5.616 -3.329,-4.403 -6.416,2.042 -6.568,1.821 -3.071,-4.227 3.761,-5.684 3.926,-5.47 -3.159,-4.527 -6.489,1.797 -6.633,1.569 -2.907,-4.341 3.974,-5.536 4.131,-5.317 -2.984,-4.644 -6.553,1.549 -6.687,1.315 -2.741,-4.448 4.183,-5.381 4.33,-5.156 -2.805,-4.754 -6.607,1.298 -6.733,1.06 -2.569,-4.55 4.384,-5.218 4.524,-4.987 -2.623,-4.857 -6.651,1.045 -6.768,0.803 -2.394,-4.644 4.58,-5.047 4.71,-4.812 -2.436,-4.954 -6.687,0.792 -6.793,0.545 -2.216,-4.732 4.769,-4.869 4.89,-4.629 -2.245,-5.043 -6.712,0.536 -6.81,0.286 -2.034,-4.813 4.951,-4.684 5.062,-4.439 -2.051,-5.125 -6.728,0.281 -6.815,0.026 -1.849,-4.887 5.125,-4.492 5.228,-4.243 -1.855,-5.199 -6.733,0.024 -6.812,-0.233 -1.661,-4.954 5.292,-4.294 5.386,-4.041 -1.656,-5.266 -6.729,-0.232 -6.798,-0.493 -1.472,-5.013 5.453,-4.089 5.535,-3.833 -1.454,-5.325 -6.715,-0.489 -6.774,-0.75 -1.281,-5.066 5.605,-3.879 5.677,-3.62 -1.25,-5.376 -6.692,-0.744 -6.741,-1.008 -1.086,-5.11 5.748,-3.663 5.811,-3.401 -1.045,-5.42 -6.659,-0.998 -6.697,-1.264 -0.891,-5.148 5.883,-3.442 5.936,-3.177 -0.837,-5.456 -6.616,-1.251 -6.645,-1.518 -0.694,-5.178 6.01,-3.215 6.053,-2.949 -0.629,-5.484 -6.564,-1.501 -6.582,-1.77 -0.496,-5.202 6.127,-2.983 6.161,-2.717 -0.42,-5.503 -6.502,-1.751 -6.509,-2.019 -0.298,-5.216 6.237,-2.748 6.259,-2.481 -0.21,-5.515 -6.43,-1.997 -6.428,-2.266 -0.099,-5.223 6.336,-2.509 6.35,-2.24 0,-5.52 -6.35,-2.24 -6.336,-2.509 0.099,-5.223 6.428,-2.266 6.43,-1.997 0.21,-5.515 -6.259,-2.481 -6.237,-2.748 0.298,-5.216 6.509,-2.019 6.502,-1.751 0.42,-5.503 -6.161,-2.717 -6.127,-2.983 0.496,-5.202 6.582,-1.77 6.564,-1.501 0.629,-5.484 -6.053,-2.949 -6.01,-3.215 0.694,-5.178 6.645,-1.518 6.616,-1.251 0.837,-5.456 -5.936,-3.177 -5.883,-3.442 0.891,-5.148 6.697,-1.264 6.659,-0.998 1.045,-5.42 -5.811,-3.401 -5.748,-3.663 1.086,-5.11 6.741,-1.008 6.692,-0.744 1.25,-5.376 -5.677,-3.62 -5.605,-3.879 1.281,-5.066 6.774,-0.75 6.715,-0.489 1.454,-5.325 -5.535,-3.833 -5.453,-4.089 1.472,-5.013 6.798,-0.493 6.729,-0.232 1.656,-5.266 -5.386,-4.041 -5.292,-4.294 1.661,-4.954 6.812,-0.233 6.733,0.024 1.855,-5.199 -5.228,-4.243 -5.125,-4.492 1.849,-4.887 6.815,0.026 6.728,0.281 2.051,-5.125 -5.062,-4.439 -4.951,-4.684 2.034,-4.813 6.81,0.286 6.712,0.536 2.245,-5.043 -4.89,-4.629 -4.769,-4.869 2.216,-4.732 6.793,0.545 6.687,0.792 2.436,-4.954 -4.71,-4.812 -4.58,-5.047 2.394,-4.644 6.768,0.803 6.651,1.045 2.623,-4.857 -4.524,-4.987 -4.384,-5.218 2.569,-4.55 6.733,1.06 6.607,1.298 2.805,-4.754 -4.33,-5.156 -4.183,-5.381 2.741,-4.448 6.687,1.315 6.553,1.549 2.984,-4.644 -4.131,-5.317 -3.974,-5.536 2.907,-4.341 6.633,1.569 6.489,1.797 3.159,-4.527 -3.926,-5.47 -3.761,-5.684 3.071,-4.227 6.568,1.821 6.416,2.042 3.329,-4.403 -3.714,-5.616 -3.542,-5.823 3.23,-4.107 6.493,2.069 6.334,2.286 3.494,-4.273 -3.497,-5.754 -3.318,-5.953 3.384,-3.981 6.41,2.315 6.242,2.525 3.654,-4.137 -3.276,-5.883 -3.089,-6.075 3.533,-3.85 6.318,2.558 6.141,2.76 3.809,-3.994 -3.05,-6.003 -2.855,-6.189 3.677,-3.712 6.215,2.796 6.032,2.992 3.959,-3.847 -2.819,-6.114 -2.618,-6.293 3.816,-3.569 6.104,3.03 5.914,3.22 4.102,-3.693 -2.584,-6.218 -2.376,-6.388 3.948,-3.421 5.985,3.261 5.787,3.442 4.239,-3.534 -2.345,-6.312 -2.131,-6.474 4.076,-3.268 5.856,3.486 5.651,3.661 4.371,-3.371 -2.103,-6.396 -1.883,-6.551 4.197,-3.111 5.72,3.707 5.507,3.873 4.497,-3.202 -1.859,-6.471 -1.632,-6.617 4.313,-2.95 5.574,3.922 5.356,4.08 4.615,-3.028 -1.611,-6.538 -1.379,-6.674 4.422,-2.783 5.421,4.131 5.197,4.281 4.727,-2.85 -1.361,-6.595 -1.124,-6.722 4.525,-2.612 5.259,4.334 5.031,4.476 4.832,-2.668 -1.109,-6.642 -0.867,-6.76 4.621,-2.438 5.09,4.532 4.857,4.663 4.93,-2.482 -0.855,-6.679 -0.61,-6.788 4.711,-2.26 4.914,4.722 4.676,4.845 5.02,-2.293 -0.6,-6.706 -0.35,-6.807 4.793,-2.079 4.731,4.905 4.487,5.02 5.105,-2.1 -0.344,-6.724 -0.091,-6.815 4.868,-1.896 4.541,5.083 4.293,5.187 5.181,-1.905 -0.088,-6.732 0.168,-6.814 4.938,-1.709 4.344,5.252 4.092,5.347 5.25,-1.706 0.168,-6.731 0.428,-6.802 4.999,-1.52 4.141,5.413 3.886,5.499 5.311,-1.504 0.424,-6.72 0.686,-6.781 5.053,-1.328 3.932,5.566 3.674,5.643 5.364,-1.301 0.68,-6.699 0.944,-6.75 5.1,-1.135 3.717,5.713 3.457,5.778 5.41,-1.096 0.934,-6.668 1.2,-6.709 5.14,-0.94 3.497,5.85 3.234,5.906 5.447,-0.89 1.188,-6.627 1.455,-6.659 5.171,-0.743 3.272,5.979 3.007,6.024 5.477,-0.681 1.439,-6.578 1.708,-6.598 5.196,-0.546 3.041,6.099 2.776,6.135 5.499,-0.473 1.689,-6.518 1.957,-6.528 5.213,-0.348 2.807,6.21 2.54,6.236 5.513,-0.262 1.936,-6.45 2.204,-6.449 5.223,-0.149 2.569,6.313 2.3,6.328 5.52,-0.053 2.179,-6.37 2.448,-6.361 5.225,0.05 2.326,6.406 2.058,6.411 5.518,0.158 2.42,-6.284 2.689,-6.262 5.219,0.248 2.081,6.49 1.812,6.485 5.507,0.368 2.658,-6.187 2.925,-6.156 5.206,0.447 1.833,6.565 1.564,6.549 5.489,0.577 2.892,-6.081 3.157,-6.04 5.185,0.645 1.581,6.63 1.314,6.603 5.463,0.786 3.121,-5.966 3.385,-5.916 5.156,0.842 1.328,6.685 1.061,6.649 5.43,0.993 3.346,-5.843 3.608,-5.782 5.12,1.037 1.073,6.731 0.807,6.685 5.388,1.198 3.566,-5.711 3.825,-5.641 5.077,1.232 0.816,6.766 0.552,6.711 5.338,1.403 3.781,-5.571 4.037,-5.491 5.027,1.424 0.557,6.792 0.296,6.727 5.282,1.606 3.99,-5.424 4.243,-5.333 4.969,1.614 0.298,6.809 0.04,6.733 5.216,1.806 4.194,-5.268 4.443,-5.168 4.904,1.802 0.039,6.816 -0.217,6.729 5.144,2.003 4.391,-5.104 4.637,-4.995 4.832,1.988 -0.221,6.811 -0.472,6.717 5.063,2.197 4.583,-4.933 4.823,-4.815 4.753,2.17 -0.48,6.799 -0.728,6.694 4.977,2.388 4.766,-4.756 5.004,-4.628 4.666,2.35 -0.738,6.776 -0.982,6.661 4.882,2.576 4.944,-4.571 5.176,-4.434 4.574,2.526 -0.996,6.742 -1.235,6.619 4.78,2.76 5.115,-4.379 5.341,-4.233 4.474,2.698 -1.252,6.699 -1.486,6.567 4.672,2.94 5.278,-4.181 5.498,-4.027 4.368,2.866 -1.506,6.647 -1.735,6.506 4.557,3.116 5.433,-3.977 5.647,-3.815 4.256,3.03 -1.758,6.585 -1.981,6.435 4.435,3.287 5.58,-3.767 5.789,-3.598 4.138,3.191 -2.008,6.513 -2.225,6.355 4.306,3.453 5.72,-3.552 5.922,-3.374 4.013,3.346 -2.254,6.432 -2.465,6.265 4.171,3.615 5.851,-3.332 6.046,-3.146 3.883,3.496 -2.497,6.341 -2.702,6.168 4.031,3.77 5.973,-3.106 6.161,-2.914 3.747,3.641 -2.736,6.242 -2.935,6.06 3.884,3.922 6.088,-2.877 6.267,-2.678 3.606,3.782 -2.973,6.133 -3.163,5.944 3.732,4.066 6.193,-2.643 6.365,-2.437 3.459,3.916 -3.204,6.016 -3.387,5.819 3.575,4.206 6.288,-2.406 6.454,-2.192 3.307,4.044 -3.43,5.889 -3.607,5.686 3.412,4.339 6.376,-2.164 6.532,-1.945 3.151,4.167 -3.652,5.755 -3.821,5.544 3.245,4.466 6.454,-1.92 6.601,-1.696 2.99,4.285 -3.869,5.611 -4.029,5.395 3.073,4.586 6.522,-1.673 6.661,-1.443 2.824,4.396 -4.079,5.459 -4.231,5.238 2.895,4.7 6.581,-1.424 6.711,-1.188 2.656,4.5 -4.285,5.3 -4.427,5.073 2.714,4.807 6.631,-1.172 6.751,-0.932 2.482,4.598 -4.483,5.133 -4.617,4.901 2.529,4.906 6.67,-0.919 6.782,-0.674 2.306,4.689 -4.675,4.959 -4.801,4.721 2.341,4.999 6.7,-0.664 6.803,-0.415 2.125,4.773 -4.861,4.778 -4.977,4.535 2.149,5.084 6.721,-0.408 6.814,-0.156 1.941,4.85 -5.038,4.589 -5.146,4.343 1.953,5.162 6.732,-0.152 6.814,0.103 1.756,4.921 -5.21,4.394 -5.307,4.143 1.755,5.234 6.733,0.104 6.805,0.363 1.568,4.984 -5.374,4.192 -5.461,3.938 1.555,5.297 6.723,0.36 6.787,0.622 1.377,5.04 -5.53,3.985 -5.607,3.727 1.352,5.352 6.705,0.616 6.759,0.879 1.183,5.089 -5.677,3.772 -5.745,3.511 1.148,5.399 6.676,0.871 6.721,1.136 0.988,5.131 -5.816,3.552 -5.875,3.29 0.941,5.439 6.639,1.125 6.672,1.391 0.793,5.164 -5.948,3.329 -5.995,3.064 0.733,5.47 6.591,1.377 6.614,1.644 0.596,5.191 -6.07,3.099 -6.108,2.834 0.525,5.495 6.534,1.626 6.546,1.895 0.398,5.21 -6.183,2.866 -6.212,2.599 0.315,5.511 6.467,1.873 6.47,2.143 0.199,5.221 -6.288,2.629 -6.306,2.361 z"
           style="fill:none;stroke:#000000"
           id="path6537" />
      </g>
      <path
         sodipodi:type="arc"
         style="fill:none;stroke:#000000;stroke-width:2.06438017;stroke-miterlimit:4;stroke-opacity:1;stroke-dasharray:none"
         id="path2983"
         sodipodi:cx="868.11023"
         sodipodi:cy="1445.6692"
         sodipodi:rx="265.74802"
         sodipodi:ry="283.46457"
         d="m 1133.8582,1445.6692 a 265.74802,283.46457 0 1 1 -531.49599,0 265.74802,283.46457 0 1 1 531.49599,0 z"
         transform="matrix(0.4981267,0,0,0.46699375,276.23253,22.911657)" />
      <use
         x="0"
         y="0"
         xlink:href="#path2983"
         id="use2985"
         transform="matrix(1.0000011,0,0,0.99999891,-6.3394284e-4,-354.3298)"
         width="1881.496"
         height="1977.1653" />
      <use
         x="0"
         y="0"
         xlink:href="#use2985"
         id="use2987"
         transform="matrix(0.99999795,0,0,1.000002,-354.32953,-9.5211155e-4)"
         width="1881.496"
         height="1977.1653" />
      <use
         x="0"
         y="0"
         xlink:href="#use2987"
         id="use2989"
         transform="matrix(1.0000028,0,0,0.99999612,-6.2182256e-4,354.33256)"
         width="1881.496"
         height="1977.1653" />
      <path
         sodipodi:type="arc"
         style="fill:none;stroke:#000000;stroke-width:3.15958261;stroke-miterlimit:4;stroke-opacity:1;stroke-dasharray:none"
         id="path3012"
         sodipodi:cx="336.61417"
         sodipodi:cy="772.44086"
         sodipodi:rx="53.149605"
         sodipodi:ry="35.433071"
         d="m 389.76377,772.44086 a 53.149605,35.433071 0 1 1 -106.29921,0 53.149605,35.433071 0 1 1 106.29921,0 z"
         transform="matrix(0.25730001,0,0,0.38595,444.88523,222.74123)" />
    </g>
    <g
       id="g3375">
      <path
         inkscape:connector-curvature="0"
         id="path3219"
         inkscape:label="part"
         style="fill:none;stroke:#000000"
         d="m 1580.8149,892.41207 0,-27.0059 -14.1732,0 0,-35.75197 14.1732,0 0,-41.01969 -14.1732,0 0,-35.75196 14.1732,0 0,-41.01969 -14.1732,0 0,-35.75197 14.1732,0 0,-41.01968 -14.1732,0 0,-35.75197 14.1732,0 0,-41.01969 -14.1732,0 0,-35.75196 14.1732,0 0,-41.01969 -14.1732,0 0,-35.75197 14.1732,0 0,-41.01968 -14.1732,0 0,-35.75197 14.1732,0 0,-41.01969 -14.1732,0 0,-35.75196 14.1732,0 0,-41.01969 -14.1732,0 0,-35.75197 14.1732,0 0,-41.01968 -14.1732,0 0,-35.75197 14.1732,0 0,-41.01969 -14.1732,0 0,-35.75197 14.1732,0 0,-41.17916" />
      <path
         inkscape:connector-curvature="0"
         id="path3221"
         inkscape:label="part"
         style="fill:none;stroke:#000000"
         d="m 1580.8149,20.7585 39.1359,0 0,14.1733 35.1141,0 0,-14.1733 53.3091,0" />
      <path
         inkscape:connector-curvature="0"
         id="path3223"
         inkscape:label="part"
         style="fill:none;stroke:#000000"
         d="m 1708.374,20.7585 0,41.49806 -14.1732,0 0,35.11418 14.1732,0 0,41.65748 -14.1732,0 0,35.11417 14.1732,0 0,41.65748 -14.1732,0 0,35.11417 14.1732,0 0,41.65748 -14.1732,0 0,35.11418 14.1732,0 0,41.65748 -14.1732,0 0,35.11417 14.1732,0 0,41.65748 -14.1732,0 0,35.11417 14.1732,0 0,41.65748 -14.1732,0 0,35.11418 14.1732,0 0,41.65748 -14.1732,0 0,35.11417 14.1732,0 0,41.65748 -14.1732,0 0,35.11417 14.1732,0 0,41.65748 -14.1732,0 0,35.11418 14.1732,0 0,41.65748 -14.1732,0 0,35.11417 14.1732,0 0,27.3248" />
      <path
         inkscape:connector-curvature="0"
         id="path3225"
         inkscape:label="part"
         style="fill:none;stroke:#000000"
         d="m 1708.374,892.41207 -52.9902,0 0,14.17323 -35.7519,0 0,-14.17323 -38.817,0" />
    </g>
    <g
       id="g3381"
       transform="translate(67.322851,-5.6796875e-5)">
      <path
         inkscape:connector-curvature="0"
         id="path3227"
         inkscape:label="part"
         style="fill:none;stroke:#000000"
         d="m 1222.9409,1051.8609 0,-52.99017 -14.1732,0 0,-35.75196 14.1732,0 0,-38.81693" />
      <path
         inkscape:connector-curvature="0"
         id="path3229"
         inkscape:label="part"
         style="fill:none;stroke:#000000"
         d="m 1222.9409,924.30184 28.187,0 0,-14.17323 35.752,0 0,14.17323 42.2008,0 0,-14.17323 35.752,0 0,14.17323 42.2008,0 0,-14.17323 35.7519,0 0,14.17323 42.2008,0 0,-14.17323 35.752,0 0,14.17323 42.3602,0" />
      <path
         inkscape:connector-curvature="0"
         id="path3231"
         inkscape:label="part"
         style="fill:none;stroke:#000000"
         d="m 1563.0984,924.30184 0,39.13582 -14.1732,0 0,35.11418 14.1732,0 0,53.30906" />
      <path
         inkscape:connector-curvature="0"
         id="path3233"
         inkscape:label="part"
         style="fill:none;stroke:#000000"
         d="m 1563.0984,1051.8609 -42.6791,0 0,-14.1732 -35.1142,0 0,14.1732 -42.8386,0 0,-14.1732 -35.1142,0 0,14.1732 -42.8385,0 0,-14.1732 -35.1142,0 0,14.1732 -42.8386,0 0,-14.1732 -35.1142,0 0,14.1732 -28.5059,0" />
    </g>
    <g
       id="g3387">
      <path
         inkscape:connector-curvature="0"
         id="path3235"
         inkscape:label="part"
         style="fill:none;stroke:#000000"
         d="m 1222.9409,906.5853 0,-41.17913 -14.1732,0 0,-35.75197 14.1732,0 0,-41.01969 -14.1732,0 0,-35.75196 14.1732,0 0,-41.01969 -14.1732,0 0,-35.75197 14.1732,0 0,-41.01968 -14.1732,0 0,-35.75197 14.1732,0 0,-41.01969 -14.1732,0 0,-35.75196 14.1732,0 0,-41.01969 -14.1732,0 0,-35.75197 14.1732,0 0,-41.01968 -14.1732,0 0,-35.75197 14.1732,0 0,-41.01969 -14.1732,0 0,-35.75196 14.1732,0 0,-41.01969 -14.1732,0 0,-35.75197 14.1732,0 0,-41.01968 -14.1732,0 0,-35.75197 14.1732,0 0,-41.01969 -14.1732,0 0,-35.75197 14.1732,0 0,-27.00586" />
      <path
         inkscape:connector-curvature="0"
         id="path3237"
         inkscape:label="part"
         style="fill:none;stroke:#000000"
         d="m 1222.9409,34.9318 28.187,0 0,-14.1733 35.752,0 0,14.1733 42.2008,0 0,-14.1733 35.752,0 0,14.1733 42.2008,0 0,-14.1733 35.7519,0 0,14.1733 42.2008,0 0,-14.1733 35.752,0 0,14.1733 42.3602,0" />
      <path
         inkscape:connector-curvature="0"
         id="path3239"
         inkscape:label="part"
         style="fill:none;stroke:#000000"
         d="m 1563.0984,34.9318 0,27.32476 -14.1732,0 0,35.11418 14.1732,0 0,41.65748 -14.1732,0 0,35.11417 14.1732,0 0,41.65748 -14.1732,0 0,35.11417 14.1732,0 0,41.65748 -14.1732,0 0,35.11418 14.1732,0 0,41.65748 -14.1732,0 0,35.11417 14.1732,0 0,41.65748 -14.1732,0 0,35.11417 14.1732,0 0,41.65748 -14.1732,0 0,35.11418 14.1732,0 0,41.65748 -14.1732,0 0,35.11417 14.1732,0 0,41.65748 -14.1732,0 0,35.11417 14.1732,0 0,41.65748 -14.1732,0 0,35.11418 14.1732,0 0,41.65748 -14.1732,0 0,35.11417 14.1732,0 0,41.49803" />
      <path
         inkscape:connector-curvature="0"
         id="path3241"
         inkscape:label="part"
         style="fill:none;stroke:#000000"
         d="m 1563.0984,906.5853 -42.6791,0 0,-14.17323 -35.1142,0 0,14.17323 -42.8386,0 0,-14.17323 -35.1142,0 0,14.17323 -42.8385,0 0,-14.17323 -35.1142,0 0,14.17323 -42.8386,0 0,-14.17323 -35.1142,0 0,14.17323 -28.5059,0" />
    </g>
    <g
       id="g3363"
       transform="translate(-304.72439,1034.6456)">
      <path
         inkscape:connector-curvature="0"
         id="path3243"
         inkscape:label="part"
         style="fill:none;stroke:#000000"
         d="m 1208.7677,17.2152 0,-53.309 14.1732,0 0,-35.1142 -14.1732,0 0,-39.1358" />
      <path
         inkscape:connector-curvature="0"
         id="path3245"
         inkscape:label="part"
         style="fill:none;stroke:#000000"
         d="m 1208.7677,-110.3438 42.3602,0 0,-14.1733 35.752,0 0,14.1733 42.2008,0 0,-14.1733 35.752,0 0,14.1733 42.2008,0 0,-14.1733 35.7519,0 0,14.1733 42.2008,0 0,-14.1733 35.752,0 0,14.1733 28.187,0" />
      <path
         inkscape:connector-curvature="0"
         id="path3247"
         inkscape:label="part"
         style="fill:none;stroke:#000000"
         d="m 1548.9252,-110.3438 0,38.8169 14.1732,0 0,35.752 -14.1732,0 0,52.9901" />
      <path
         inkscape:connector-curvature="0"
         id="path3249"
         inkscape:label="part"
         style="fill:none;stroke:#000000"
         d="m 1548.9252,17.2152 -28.5059,0 0,-14.1732 -35.1142,0 0,14.1732 -42.8386,0 0,-14.1732 -35.1142,0 0,14.1732 -42.8385,0 0,-14.1732 -35.1142,0 0,14.1732 -42.8386,0 0,-14.1732 -35.1142,0 0,14.1732 -42.6791,0" />
    </g>
    <g
       id="g3369">
      <path
         inkscape:connector-curvature="0"
         id="path3259"
         inkscape:label="part"
         style="fill:none;stroke:#000000"
         d="m 1077.6653,906.5853 0,-41.17913 -14.1732,0 0,-35.75197 14.1732,0 0,-41.01969 -14.1732,0 0,-35.75196 14.1732,0 0,-41.01969 -14.1732,0 0,-35.75197 14.1732,0 0,-41.01968 -14.1732,0 0,-35.75197 14.1732,0 0,-41.01969 -14.1732,0 0,-35.75196 14.1732,0 0,-41.01969 -14.1732,0 0,-35.75197 14.1732,0 0,-41.01968 -14.1732,0 0,-35.75197 14.1732,0 0,-41.01969 -14.1732,0 0,-35.75196 14.1732,0 0,-41.01969 -14.1732,0 0,-35.75197 14.1732,0 0,-41.01968 -14.1732,0 0,-35.75197 14.1732,0 0,-41.01969 -14.1732,0 0,-35.75197 14.1732,0 0,-27.00586" />
      <path
         inkscape:connector-curvature="0"
         id="path3261"
         inkscape:label="part"
         style="fill:none;stroke:#000000"
         d="m 1077.6653,34.9318 38.817,0 0,-14.1733 35.7519,0 0,14.1733 52.9902,0" />
      <path
         inkscape:connector-curvature="0"
         id="path3263"
         inkscape:label="part"
         style="fill:none;stroke:#000000"
         d="m 1205.2244,34.9318 0,27.32476 -14.1732,0 0,35.11418 14.1732,0 0,41.65748 -14.1732,0 0,35.11417 14.1732,0 0,41.65748 -14.1732,0 0,35.11417 14.1732,0 0,41.65748 -14.1732,0 0,35.11418 14.1732,0 0,41.65748 -14.1732,0 0,35.11417 14.1732,0 0,41.65748 -14.1732,0 0,35.11417 14.1732,0 0,41.65748 -14.1732,0 0,35.11418 14.1732,0 0,41.65748 -14.1732,0 0,35.11417 14.1732,0 0,41.65748 -14.1732,0 0,35.11417 14.1732,0 0,41.65748 -14.1732,0 0,35.11418 14.1732,0 0,41.65748 -14.1732,0 0,35.11417 14.1732,0 0,41.49803" />
      <path
         inkscape:connector-curvature="0"
         id="path3265"
         inkscape:label="part"
         style="fill:none;stroke:#000000"
         d="m 1205.2244,906.5853 -53.3091,0 0,-14.17323 -35.1141,0 0,14.17323 -39.1359,0" />
    </g>
    <g
       transform="translate(637.0866,254.20697)"
       id="g3782">
      <g
         id="g3768"
         transform="translate(-106.29921,283.46457)">
        <g
           id="g3770">
          <path
             transform="matrix(2.1719,0,0,1.08595,-784.79824,-526.40773)"
             d="m 460.62993,311.81094 c 0,19.56915 -7.93197,35.43307 -17.71654,35.43307 -9.78457,0 -17.71653,-15.86392 -17.71653,-35.43307 0,-19.56914 7.93196,-35.43307 17.71653,-35.43307 9.78457,0 17.71654,15.86393 17.71654,35.43307 z"
             sodipodi:ry="35.433071"
             sodipodi:rx="17.716536"
             sodipodi:cy="311.81094"
             sodipodi:cx="442.91339"
             id="path3772"
             style="fill:none;stroke:#000000;stroke-width:0.64832127;stroke-miterlimit:4;stroke-opacity:1;stroke-dasharray:none"
             sodipodi:type="arc" />
          <path
             transform="matrix(0.092975,0,0,0.12396667,154.10463,-180.73919)"
             d="m 318.89764,400.39362 c 0,29.35371 -31.72786,53.1496 -70.86615,53.1496 -39.13829,0 -70.86614,-23.79589 -70.86614,-53.1496 0,-29.35372 31.72785,-53.14961 70.86614,-53.14961 39.13829,0 70.86615,23.79589 70.86615,53.14961 z"
             sodipodi:ry="53.149605"
             sodipodi:rx="70.866142"
             sodipodi:cy="400.39362"
             sodipodi:cx="248.03149"
             id="path3774"
             style="fill:none;stroke:#000000;stroke-width:9.27426624;stroke-miterlimit:4;stroke-opacity:1;stroke-dasharray:none"
             sodipodi:type="arc" />
          <path
             sodipodi:type="arc"
             style="fill:none;stroke:#000000;stroke-width:9.27426624;stroke-miterlimit:4;stroke-opacity:1;stroke-dasharray:none"
             id="path3776"
             sodipodi:cx="248.03149"
             sodipodi:cy="400.39362"
             sodipodi:rx="70.866142"
             sodipodi:ry="53.149605"
             d="m 318.89764,400.39362 c 0,29.35371 -31.72786,53.1496 -70.86615,53.1496 -39.13829,0 -70.86614,-23.79589 -70.86614,-53.1496 0,-29.35372 31.72785,-53.14961 70.86614,-53.14961 39.13829,0 70.86615,23.79589 70.86615,53.14961 z"
             transform="matrix(-0.0464875,-0.08051871,0.10735828,-0.06198334,195.30026,-171.27258)" />
          <path
             transform="matrix(0.0464875,-0.08051871,-0.10735828,-0.06198334,159.01536,-171.27258)"
             d="m 318.89764,400.39362 c 0,29.35371 -31.72786,53.1496 -70.86615,53.1496 -39.13829,0 -70.86614,-23.79589 -70.86614,-53.1496 0,-29.35372 31.72785,-53.14961 70.86614,-53.14961 39.13829,0 70.86615,23.79589 70.86615,53.14961 z"
             sodipodi:ry="53.149605"
             sodipodi:rx="70.866142"
             sodipodi:cy="400.39362"
             sodipodi:cx="248.03149"
             id="path3778"
             style="fill:none;stroke:#000000;stroke-width:9.27426624;stroke-miterlimit:4;stroke-opacity:1;stroke-dasharray:none"
             sodipodi:type="arc" />
        </g>
      </g>
      <path
         sodipodi:type="arc"
         style="fill:none;stroke:#000000;stroke-width:0.86837524;stroke-miterlimit:4;stroke-opacity:1;stroke-dasharray:none"
         id="path3780"
         sodipodi:cx="124.01575"
         sodipodi:cy="453.54324"
         sodipodi:rx="53.149605"
         sodipodi:ry="70.866142"
         d="m 177.16535,453.54324 c 0,39.13829 -23.79589,70.86615 -53.1496,70.86615 -29.353719,0 -53.149608,-31.72786 -53.149608,-70.86615 0,-39.13829 23.795889,-70.86614 53.149608,-70.86614 29.35371,0 53.1496,31.72785 53.1496,70.86614 z"
         transform="matrix(1.3239667,0,0,0.99297499,-93.326578,-354.68917)" />
    </g>
    <path
       transform="matrix(1.763053,0,0,3.330211,-1103.4774,-1285.1927)"
       d="m 1027.559,329.5275 a 301.18109,159.44882 0 1 1 -602.36216,0 301.18109,159.44882 0 1 1 602.36216,0 z"
       sodipodi:ry="159.44882"
       sodipodi:rx="301.18109"
       sodipodi:cy="329.5275"
       sodipodi:cx="726.37793"
       id="path3793"
       style="fill:none;stroke:#ff0000;stroke-width:0.41090983;stroke-miterlimit:4;stroke-opacity:1;stroke-dasharray:none;display:none"
       sodipodi:type="arc" />
    <g
       id="g4291"
       transform="translate(709.16142,-533.52079)">
      <path
         d="m 198.4252,379.13386 27.0059,0 0,-14.17323 35.75197,0 0,14.17323 41.01969,0 0,-14.17323 35.75196,0 0,14.17323 41.01969,0 0,-14.17323 35.75197,0 0,14.17323 41.01968,0 0,-14.17323 35.75197,0 0,14.17323 41.01969,0 0,-14.17323 35.75197,0 0,14.17323 41.01968,0 0,-14.17323 35.75197,0 0,14.17323 41.01968,0 0,-14.17323 35.75197,0 0,14.17323 41.01969,0 0,-14.17323 35.75197,0 0,14.17323 41.01968,0 0,-14.17323 35.75197,0 0,14.17323 41.01968,0 0,-14.17323 35.75197,0 0,14.17323 41.01969,0 0,-14.17323 35.75196,0 0,14.17323 41.1791,0"
         style="fill:none;stroke:#000000"
         inkscape:label="part"
         id="path3989"
         inkscape:connector-curvature="0" />
      <path
         d="m 1070.0787,379.13386 0,21.41929 -14.1732,0 0,35.11417 14.1732,0 0,35.75197 -14.1732,0 0,35.11417 14.1732,0 0,35.59252"
         style="fill:none;stroke:#000000"
         inkscape:label="part"
         id="path3991"
         inkscape:connector-curvature="0" />
      <path
         d="m 1070.0787,542.12598 -41.498,0 0,-14.17322 -35.11416,0 0,14.17322 -41.65748,0 0,-14.17322 -35.11418,0 0,14.17322 -41.65748,0 0,-14.17322 -35.11417,0 0,14.17322 -41.65748,0 0,-14.17322 -35.11418,0 0,14.17322 -41.65748,0 0,-14.17322 -35.11417,0 0,14.17322 -41.65748,0 0,-14.17322 -35.11417,0 0,14.17322 -41.65748,0 0,-14.17322 -35.11418,0 0,14.17322 -41.65748,0 0,-14.17322 -35.11417,0 0,14.17322 -41.65748,0 0,-14.17322 -35.11417,0 0,14.17322 -41.65748,0 0,-14.17322 -35.11418,0 0,14.17322 -41.65748,0 0,-14.17322 -35.11417,0 0,14.17322 -27.3248,0"
         style="fill:none;stroke:#000000"
         inkscape:label="part"
         id="path3993"
         inkscape:connector-curvature="0" />
      <path
         d="m 198.4252,542.12598 0,-35.27362 -14.17323,0 0,-35.75197 14.17323,0 0,-35.11417 -14.17323,0 0,-35.75197 14.17323,0 0,-21.10039"
         style="fill:none;stroke:#000000"
         inkscape:label="part"
         id="path3995"
         inkscape:connector-curvature="0" />
    </g>
    <g
       id="g4285"
       transform="translate(709.16142,-539.79751)">
      <path
         d="m 184.25197,198.4252 41.17913,0 0,-14.17323 35.75197,0 0,14.17323 41.01969,0 0,-14.17323 35.75196,0 0,14.17323 41.01969,0 0,-14.17323 35.75197,0 0,14.17323 41.01968,0 0,-14.17323 35.75197,0 0,14.17323 41.01969,0 0,-14.17323 35.75197,0 0,14.17323 41.01968,0 0,-14.17323 35.75197,0 0,14.17323 41.01968,0 0,-14.17323 35.75197,0 0,14.17323 41.01969,0 0,-14.17323 35.75197,0 0,14.17323 41.01968,0 0,-14.17323 35.75197,0 0,14.17323 41.01968,0 0,-14.17323 35.75197,0 0,14.17323 41.01969,0 0,-14.17323 35.75196,0 0,14.17323 27.0059,0"
         style="fill:none;stroke:#000000"
         inkscape:label="part"
         id="path4005"
         inkscape:connector-curvature="0" />
      <path
         d="m 1055.9055,198.4252 0,21.10039 14.1732,0 0,35.75197 -14.1732,0 0,35.11417 14.1732,0 0,35.75197 -14.1732,0 0,35.27362"
         style="fill:none;stroke:#000000"
         inkscape:label="part"
         id="path4007"
         inkscape:connector-curvature="0" />
      <path
         d="m 1055.9055,361.41732 -27.3248,0 0,-14.17323 -35.11416,0 0,14.17323 -41.65748,0 0,-14.17323 -35.11418,0 0,14.17323 -41.65748,0 0,-14.17323 -35.11417,0 0,14.17323 -41.65748,0 0,-14.17323 -35.11418,0 0,14.17323 -41.65748,0 0,-14.17323 -35.11417,0 0,14.17323 -41.65748,0 0,-14.17323 -35.11417,0 0,14.17323 -41.65748,0 0,-14.17323 -35.11418,0 0,14.17323 -41.65748,0 0,-14.17323 -35.11417,0 0,14.17323 -41.65748,0 0,-14.17323 -35.11417,0 0,14.17323 -41.65748,0 0,-14.17323 -35.11418,0 0,14.17323 -41.65748,0 0,-14.17323 -35.11417,0 0,14.17323 -41.49803,0"
         style="fill:none;stroke:#000000"
         inkscape:label="part"
         id="path4009"
         inkscape:connector-curvature="0" />
      <path
         d="m 184.25197,361.41732 0,-35.59252 14.17323,0 0,-35.11417 -14.17323,0 0,-35.75197 14.17323,0 0,-35.11417 -14.17323,0 0,-21.41929"
         style="fill:none;stroke:#000000"
         inkscape:label="part"
         id="path4011"
         inkscape:connector-curvature="0" />
    </g>
    <g
       id="g4260"
       transform="translate(-1253.8307,-730.42262)">
      <path
         d="m 1254.3307,184.25197 41.498,0 0,14.17323 35.1142,0 0,-14.17323 41.6575,0 0,14.17323 35.1142,0 0,-14.17323 41.6574,0 0,14.17323 35.1142,0 0,-14.17323 41.6575,0 0,14.17323 35.1142,0 0,-14.17323 41.6575,0 0,14.17323 35.1141,0 0,-14.17323 41.6575,0 0,14.17323 35.1142,0 0,-14.17323 41.6575,0 0,14.17323 35.1141,0 0,-14.17323 41.6575,0 0,14.17323 35.1142,0 0,-14.17323 41.6575,0 0,14.17323 35.1141,0 0,-14.17323 41.6575,0 0,14.17323 35.1142,0 0,-14.17323 41.6575,0 0,14.17323 35.1141,0 0,-14.17323 27.3249,0"
         style="fill:none;stroke:#000000"
         inkscape:label="part"
         id="path4021"
         inkscape:connector-curvature="0" />
      <path
         d="m 2125.9843,184.25197 0,35.27362 14.1732,0 0,35.75197 -14.1732,0 0,35.11417 14.1732,0 0,35.75197 -14.1732,0 0,21.10039"
         style="fill:none;stroke:#000000"
         inkscape:label="part"
         id="path4023"
         inkscape:connector-curvature="0" />
      <path
         d="m 2125.9843,347.24409 -27.006,0 0,14.17323 -35.7519,0 0,-14.17323 -41.0197,0 0,14.17323 -35.752,0 0,-14.17323 -41.0197,0 0,14.17323 -35.7519,0 0,-14.17323 -41.0197,0 0,14.17323 -35.752,0 0,-14.17323 -41.0197,0 0,14.17323 -35.7519,0 0,-14.17323 -41.0197,0 0,14.17323 -35.752,0 0,-14.17323 -41.0197,0 0,14.17323 -35.7519,0 0,-14.17323 -41.0197,0 0,14.17323 -35.752,0 0,-14.17323 -41.0197,0 0,14.17323 -35.752,0 0,-14.17323 -41.0196,0 0,14.17323 -35.752,0 0,-14.17323 -41.0197,0 0,14.17323 -35.752,0 0,-14.17323 -41.1791,0"
         style="fill:none;stroke:#000000"
         inkscape:label="part"
         id="path4025"
         inkscape:connector-curvature="0" />
      <path
         d="m 1254.3307,347.24409 0,-21.41929 14.1732,0 0,-35.11417 -14.1732,0 0,-35.75197 14.1732,0 0,-35.11417 -14.1732,0 0,-35.59252"
         style="fill:none;stroke:#000000"
         inkscape:label="part"
         id="path4027"
         inkscape:connector-curvature="0" />
    </g>
    <g
       id="g4279"
       transform="translate(709.16142,-549.71396)">
      <path
         d="m 184.25197,17.716535 41.17913,0 0,-14.1732279 35.75197,0 0,14.1732279 41.01969,0 0,-14.1732279 35.75196,0 0,14.1732279 41.01969,0 0,-14.1732279 35.75197,0 0,14.1732279 41.01968,0 0,-14.1732279 35.75197,0 0,14.1732279 41.01969,0 0,-14.1732279 35.75197,0 0,14.1732279 41.01968,0 0,-14.1732279 35.75197,0 0,14.1732279 41.01968,0 0,-14.1732279 35.75197,0 0,14.1732279 41.01969,0 0,-14.1732279 35.75197,0 0,14.1732279 41.01968,0 0,-14.1732279 35.75197,0 0,14.1732279 41.01968,0 0,-14.1732279 35.75197,0 0,14.1732279 41.01969,0 0,-14.1732279 35.75196,0 0,14.1732279 27.0059,0"
         style="fill:none;stroke:#000000;stroke-width:1"
         inkscape:label="part"
         id="path4029"
         inkscape:connector-curvature="0" />
      <path
         d="m 1055.9055,17.716535 0,21.100394 14.1732,0 0,35.751969 -14.1732,0 0,35.114172 14.1732,0 0,35.75197 -14.1732,0 0,35.27362"
         style="fill:none;stroke:#000000;stroke-width:1"
         inkscape:label="part"
         id="path4031"
         inkscape:connector-curvature="0" />
      <path
         d="m 1055.9055,180.70866 -27.3248,0 0,-14.17323 -35.11416,0 0,14.17323 -41.65748,0 0,-14.17323 -35.11418,0 0,14.17323 -41.65748,0 0,-14.17323 -35.11417,0 0,14.17323 -41.65748,0 0,-14.17323 -35.11418,0 0,14.17323 -41.65748,0 0,-14.17323 -35.11417,0 0,14.17323 -41.65748,0 0,-14.17323 -35.11417,0 0,14.17323 -41.65748,0 0,-14.17323 -35.11418,0 0,14.17323 -41.65748,0 0,-14.17323 -35.11417,0 0,14.17323 -41.65748,0 0,-14.17323 -35.11417,0 0,14.17323 -41.65748,0 0,-14.17323 -35.11418,0 0,14.17323 -41.65748,0 0,-14.17323 -35.11417,0 0,14.17323 -41.49803,0"
         style="fill:none;stroke:#000000;stroke-width:1"
         inkscape:label="part"
         id="path4033"
         inkscape:connector-curvature="0" />
      <path
         d="m 184.25197,180.70866 0,-35.59252 14.17323,0 0,-35.11417 -14.17323,0 0,-35.75197 14.17323,0 0,-35.114173 -14.17323,0 0,-21.419292"
         style="fill:none;stroke:#000000;stroke-width:1"
         inkscape:label="part"
         id="path4035"
         inkscape:connector-curvature="0" />
    </g>
    <g
       id="g8454"
       transform="translate(260.48367,-611.97974)">
      <g
         transform="translate(92.426,959.60184)"
         inkscape:label="Gear27"
         id="g8237">
        <path
           inkscape:connector-curvature="0"
           d="m 79.365,-5.811 1.18,-0.086 5.253,0.9 6.483,2.681 0,4.632 -6.483,2.681 -5.253,0.9 -1.18,-0.086 -0.799,6.838 1.168,0.188 4.904,2.087 5.689,4.104 -1.068,4.507 -6.926,1.114 -5.319,-0.336 -1.128,-0.356 -2.355,6.47 1.093,0.452 4.291,3.162 4.589,5.305 -2.078,4.139 -6.997,-0.513 -5.098,-1.554 -1.016,-0.607 -3.783,5.753 0.96,0.692 3.445,4.066 3.243,6.221 -2.977,3.548 -6.69,-2.113 -4.602,-2.687 -0.849,-0.825 -5.008,4.725 0.774,0.895 2.416,4.751 1.72,6.801 -3.715,2.765 -6.022,-3.598 -3.859,-3.677 -0.635,-0.998 -5.963,3.443 0.547,1.049 1.254,5.18 0.106,7.015 -4.253,1.834 -5.03,-4.89 -2.906,-4.468 -0.388,-1.117 -6.596,1.974 0.29,1.147 0.026,5.33 -1.515,6.85 -4.561,0.804 L 9.977,85.363 8.179,80.345 8.059,79.168 1.186,79.569 1.204,80.752 0,85.944 l -3.054,6.315 -4.623,-0.269 -2.3,-6.627 -0.593,-5.297 0.155,-1.173 -6.781,-1.196 -0.255,1.156 -2.369,4.774 -4.428,5.441 -4.437,-1.328 -0.709,-6.979 0.644,-5.291 0.421,-1.106 -6.321,-2.727 -0.516,1.066 -3.405,4.099 -5.564,4.273 -4.011,-2.315 0.919,-6.955 1.848,-4.999 0.664,-0.979 -5.522,-4.112 -0.747,0.918 -4.26,3.204 -6.399,2.875 -3.368,-3.178 2.498,-6.556 2.95,-4.438 0.873,-0.799 -4.426,-5.275 -0.938,0.721 -4.883,2.135 -6.89,1.322 -2.545,-3.869 3.943,-5.803 3.894,-3.639 1.034,-0.576 -3.09,-6.152 -1.08,0.484 -5.244,0.952 -7.009,-0.303 -1.584,-4.352 5.175,-4.737 4.629,-2.642 1.138,-0.323 -1.588,-6.699 -1.162,0.223 -5.322,-0.284 -6.75,-1.911 -0.538,-4.6 6.128,-3.416 5.113,-1.503 1.182,-0.051 0,-6.886 -1.182,-0.051 -5.113,-1.503 -6.128,-3.416 0.538,-4.6 6.75,-1.911 5.322,-0.284 1.162,0.223 1.588,-6.699 -1.138,-0.323 -4.629,-2.642 -5.175,-4.737 1.584,-4.352 7.009,-0.303 5.244,0.952 1.08,0.484 3.09,-6.152 -1.034,-0.576 -3.894,-3.639 -3.943,-5.803 2.545,-3.869 6.89,1.322 4.883,2.135 0.938,0.721 4.426,-5.275 -0.873,-0.799 -2.95,-4.438 -2.498,-6.556 3.368,-3.178 6.399,2.875 4.26,3.204 0.747,0.918 5.522,-4.112 -0.664,-0.979 -1.848,-4.999 -0.919,-6.955 4.011,-2.315 5.564,4.273 3.405,4.099 0.516,1.066 6.321,-2.727 -0.421,-1.106 -0.644,-5.291 0.709,-6.979 4.437,-1.328 4.428,5.441 2.369,4.774 0.255,1.156 6.781,-1.196 -0.155,-1.173 0.593,-5.297 2.3,-6.627 4.623,-0.269 3.054,6.315 1.204,5.192 -0.018,1.183 6.873,0.401 0.12,-1.177 1.798,-5.018 3.767,-5.918 4.561,0.804 1.515,6.85 -0.026,5.33 -0.29,1.147 6.596,1.974 0.388,-1.117 2.906,-4.468 5.03,-4.89 4.253,1.834 -0.106,7.015 -1.254,5.18 -0.547,1.049 5.963,3.443 0.635,-0.998 3.859,-3.677 6.022,-3.598 3.715,2.765 -1.72,6.801 -2.416,4.751 -0.774,0.895 5.008,4.725 0.849,-0.825 4.602,-2.687 6.69,-2.113 2.977,3.548 -3.243,6.221 -3.445,4.066 -0.96,0.692 3.783,5.753 1.016,-0.607 5.098,-1.554 6.997,-0.513 2.078,4.139 -4.589,5.305 -4.291,3.162 -1.093,0.452 2.355,6.47 1.128,-0.356 5.319,-0.336 6.926,1.114 1.068,4.507 -5.689,4.104 -4.904,2.087 -1.168,0.188 z"
           style="fill:none;stroke:#000000"
           id="path8239" />
      </g>
      <path
         transform="matrix(0.23595,0,0,0.23595,25.720866,861.10342)"
         d="m 318.89764,418.11017 c 0,19.56914 -15.86393,35.43307 -35.43307,35.43307 -19.56915,0 -35.43307,-15.86393 -35.43307,-35.43307 0,-19.56915 15.86392,-35.43307 35.43307,-35.43307 19.56914,0 35.43307,15.86392 35.43307,35.43307 z"
         sodipodi:ry="35.433071"
         sodipodi:rx="35.433071"
         sodipodi:cy="418.11017"
         sodipodi:cx="283.46457"
         id="path8452"
         style="fill:none;stroke:#000000;stroke-width:4.21983147;stroke-miterlimit:4;stroke-opacity:1;stroke-dasharray:none"
         sodipodi:type="arc" />
    </g>
    <g
       transform="translate(0,3.2031251e-6)"
       id="g8477">
      <g
         id="g8479"
         inkscape:label="Gear27"
         transform="translate(92.426,959.60184)">
        <path
           id="path8481"
           style="fill:none;stroke:#000000"
           d="m 79.365,-5.811 1.18,-0.086 5.253,0.9 6.483,2.681 0,4.632 -6.483,2.681 -5.253,0.9 -1.18,-0.086 -0.799,6.838 1.168,0.188 4.904,2.087 5.689,4.104 -1.068,4.507 -6.926,1.114 -5.319,-0.336 -1.128,-0.356 -2.355,6.47 1.093,0.452 4.291,3.162 4.589,5.305 -2.078,4.139 -6.997,-0.513 -5.098,-1.554 -1.016,-0.607 -3.783,5.753 0.96,0.692 3.445,4.066 3.243,6.221 -2.977,3.548 -6.69,-2.113 -4.602,-2.687 -0.849,-0.825 -5.008,4.725 0.774,0.895 2.416,4.751 1.72,6.801 -3.715,2.765 -6.022,-3.598 -3.859,-3.677 -0.635,-0.998 -5.963,3.443 0.547,1.049 1.254,5.18 0.106,7.015 -4.253,1.834 -5.03,-4.89 -2.906,-4.468 -0.388,-1.117 -6.596,1.974 0.29,1.147 0.026,5.33 -1.515,6.85 -4.561,0.804 L 9.977,85.363 8.179,80.345 8.059,79.168 1.186,79.569 1.204,80.752 0,85.944 l -3.054,6.315 -4.623,-0.269 -2.3,-6.627 -0.593,-5.297 0.155,-1.173 -6.781,-1.196 -0.255,1.156 -2.369,4.774 -4.428,5.441 -4.437,-1.328 -0.709,-6.979 0.644,-5.291 0.421,-1.106 -6.321,-2.727 -0.516,1.066 -3.405,4.099 -5.564,4.273 -4.011,-2.315 0.919,-6.955 1.848,-4.999 0.664,-0.979 -5.522,-4.112 -0.747,0.918 -4.26,3.204 -6.399,2.875 -3.368,-3.178 2.498,-6.556 2.95,-4.438 0.873,-0.799 -4.426,-5.275 -0.938,0.721 -4.883,2.135 -6.89,1.322 -2.545,-3.869 3.943,-5.803 3.894,-3.639 1.034,-0.576 -3.09,-6.152 -1.08,0.484 -5.244,0.952 -7.009,-0.303 -1.584,-4.352 5.175,-4.737 4.629,-2.642 1.138,-0.323 -1.588,-6.699 -1.162,0.223 -5.322,-0.284 -6.75,-1.911 -0.538,-4.6 6.128,-3.416 5.113,-1.503 1.182,-0.051 0,-6.886 -1.182,-0.051 -5.113,-1.503 -6.128,-3.416 0.538,-4.6 6.75,-1.911 5.322,-0.284 1.162,0.223 1.588,-6.699 -1.138,-0.323 -4.629,-2.642 -5.175,-4.737 1.584,-4.352 7.009,-0.303 5.244,0.952 1.08,0.484 3.09,-6.152 -1.034,-0.576 -3.894,-3.639 -3.943,-5.803 2.545,-3.869 6.89,1.322 4.883,2.135 0.938,0.721 4.426,-5.275 -0.873,-0.799 -2.95,-4.438 -2.498,-6.556 3.368,-3.178 6.399,2.875 4.26,3.204 0.747,0.918 5.522,-4.112 -0.664,-0.979 -1.848,-4.999 -0.919,-6.955 4.011,-2.315 5.564,4.273 3.405,4.099 0.516,1.066 6.321,-2.727 -0.421,-1.106 -0.644,-5.291 0.709,-6.979 4.437,-1.328 4.428,5.441 2.369,4.774 0.255,1.156 6.781,-1.196 -0.155,-1.173 0.593,-5.297 2.3,-6.627 4.623,-0.269 3.054,6.315 1.204,5.192 -0.018,1.183 6.873,0.401 0.12,-1.177 1.798,-5.018 3.767,-5.918 4.561,0.804 1.515,6.85 -0.026,5.33 -0.29,1.147 6.596,1.974 0.388,-1.117 2.906,-4.468 5.03,-4.89 4.253,1.834 -0.106,7.015 -1.254,5.18 -0.547,1.049 5.963,3.443 0.635,-0.998 3.859,-3.677 6.022,-3.598 3.715,2.765 -1.72,6.801 -2.416,4.751 -0.774,0.895 5.008,4.725 0.849,-0.825 4.602,-2.687 6.69,-2.113 2.977,3.548 -3.243,6.221 -3.445,4.066 -0.96,0.692 3.783,5.753 1.016,-0.607 5.098,-1.554 6.997,-0.513 2.078,4.139 -4.589,5.305 -4.291,3.162 -1.093,0.452 2.355,6.47 1.128,-0.356 5.319,-0.336 6.926,1.114 1.068,4.507 -5.689,4.104 -4.904,2.087 -1.168,0.188 z"
           inkscape:connector-curvature="0" />
      </g>
      <path
         sodipodi:type="arc"
         style="fill:none;stroke:#000000;stroke-width:4.21983147;stroke-miterlimit:4;stroke-opacity:1;stroke-dasharray:none"
         id="path8483"
         sodipodi:cx="283.46457"
         sodipodi:cy="418.11017"
         sodipodi:rx="35.433071"
         sodipodi:ry="35.433071"
         d="m 318.89764,418.11017 c 0,19.56914 -15.86393,35.43307 -35.43307,35.43307 -19.56915,0 -35.43307,-15.86393 -35.43307,-35.43307 0,-19.56915 15.86392,-35.43307 35.43307,-35.43307 19.56914,0 35.43307,15.86392 35.43307,35.43307 z"
         transform="matrix(0.23595,0,0,0.23595,25.720866,861.10342)" />
    </g>
    <g
       transform="translate(0,-878.74014)"
       id="g8485">
      <g
         id="g8487"
         inkscape:label="Gear27"
         transform="translate(92.426,959.60184)">
        <path
           id="path8489"
           style="fill:none;stroke:#000000"
           d="m 79.365,-5.811 1.18,-0.086 5.253,0.9 6.483,2.681 0,4.632 -6.483,2.681 -5.253,0.9 -1.18,-0.086 -0.799,6.838 1.168,0.188 4.904,2.087 5.689,4.104 -1.068,4.507 -6.926,1.114 -5.319,-0.336 -1.128,-0.356 -2.355,6.47 1.093,0.452 4.291,3.162 4.589,5.305 -2.078,4.139 -6.997,-0.513 -5.098,-1.554 -1.016,-0.607 -3.783,5.753 0.96,0.692 3.445,4.066 3.243,6.221 -2.977,3.548 -6.69,-2.113 -4.602,-2.687 -0.849,-0.825 -5.008,4.725 0.774,0.895 2.416,4.751 1.72,6.801 -3.715,2.765 -6.022,-3.598 -3.859,-3.677 -0.635,-0.998 -5.963,3.443 0.547,1.049 1.254,5.18 0.106,7.015 -4.253,1.834 -5.03,-4.89 -2.906,-4.468 -0.388,-1.117 -6.596,1.974 0.29,1.147 0.026,5.33 -1.515,6.85 -4.561,0.804 L 9.977,85.363 8.179,80.345 8.059,79.168 1.186,79.569 1.204,80.752 0,85.944 l -3.054,6.315 -4.623,-0.269 -2.3,-6.627 -0.593,-5.297 0.155,-1.173 -6.781,-1.196 -0.255,1.156 -2.369,4.774 -4.428,5.441 -4.437,-1.328 -0.709,-6.979 0.644,-5.291 0.421,-1.106 -6.321,-2.727 -0.516,1.066 -3.405,4.099 -5.564,4.273 -4.011,-2.315 0.919,-6.955 1.848,-4.999 0.664,-0.979 -5.522,-4.112 -0.747,0.918 -4.26,3.204 -6.399,2.875 -3.368,-3.178 2.498,-6.556 2.95,-4.438 0.873,-0.799 -4.426,-5.275 -0.938,0.721 -4.883,2.135 -6.89,1.322 -2.545,-3.869 3.943,-5.803 3.894,-3.639 1.034,-0.576 -3.09,-6.152 -1.08,0.484 -5.244,0.952 -7.009,-0.303 -1.584,-4.352 5.175,-4.737 4.629,-2.642 1.138,-0.323 -1.588,-6.699 -1.162,0.223 -5.322,-0.284 -6.75,-1.911 -0.538,-4.6 6.128,-3.416 5.113,-1.503 1.182,-0.051 0,-6.886 -1.182,-0.051 -5.113,-1.503 -6.128,-3.416 0.538,-4.6 6.75,-1.911 5.322,-0.284 1.162,0.223 1.588,-6.699 -1.138,-0.323 -4.629,-2.642 -5.175,-4.737 1.584,-4.352 7.009,-0.303 5.244,0.952 1.08,0.484 3.09,-6.152 -1.034,-0.576 -3.894,-3.639 -3.943,-5.803 2.545,-3.869 6.89,1.322 4.883,2.135 0.938,0.721 4.426,-5.275 -0.873,-0.799 -2.95,-4.438 -2.498,-6.556 3.368,-3.178 6.399,2.875 4.26,3.204 0.747,0.918 5.522,-4.112 -0.664,-0.979 -1.848,-4.999 -0.919,-6.955 4.011,-2.315 5.564,4.273 3.405,4.099 0.516,1.066 6.321,-2.727 -0.421,-1.106 -0.644,-5.291 0.709,-6.979 4.437,-1.328 4.428,5.441 2.369,4.774 0.255,1.156 6.781,-1.196 -0.155,-1.173 0.593,-5.297 2.3,-6.627 4.623,-0.269 3.054,6.315 1.204,5.192 -0.018,1.183 6.873,0.401 0.12,-1.177 1.798,-5.018 3.767,-5.918 4.561,0.804 1.515,6.85 -0.026,5.33 -0.29,1.147 6.596,1.974 0.388,-1.117 2.906,-4.468 5.03,-4.89 4.253,1.834 -0.106,7.015 -1.254,5.18 -0.547,1.049 5.963,3.443 0.635,-0.998 3.859,-3.677 6.022,-3.598 3.715,2.765 -1.72,6.801 -2.416,4.751 -0.774,0.895 5.008,4.725 0.849,-0.825 4.602,-2.687 6.69,-2.113 2.977,3.548 -3.243,6.221 -3.445,4.066 -0.96,0.692 3.783,5.753 1.016,-0.607 5.098,-1.554 6.997,-0.513 2.078,4.139 -4.589,5.305 -4.291,3.162 -1.093,0.452 2.355,6.47 1.128,-0.356 5.319,-0.336 6.926,1.114 1.068,4.507 -5.689,4.104 -4.904,2.087 -1.168,0.188 z"
           inkscape:connector-curvature="0" />
      </g>
      <path
         sodipodi:type="arc"
         style="fill:none;stroke:#000000;stroke-width:4.21983147;stroke-miterlimit:4;stroke-opacity:1;stroke-dasharray:none"
         id="path8491"
         sodipodi:cx="283.46457"
         sodipodi:cy="418.11017"
         sodipodi:rx="35.433071"
         sodipodi:ry="35.433071"
         d="m 318.89764,418.11017 c 0,19.56914 -15.86393,35.43307 -35.43307,35.43307 -19.56915,0 -35.43307,-15.86393 -35.43307,-35.43307 0,-19.56915 15.86392,-35.43307 35.43307,-35.43307 19.56914,0 35.43307,15.86392 35.43307,35.43307 z"
         transform="matrix(0.23595,0,0,0.23595,25.720866,861.10342)" />
    </g>
    <g
       id="g8493"
       transform="translate(904.09758,-8.1468412)">
      <g
         transform="translate(-106.29921,283.46457)"
         id="g8495">
        <g
           id="g8497">
          <path
             sodipodi:type="arc"
             style="fill:none;stroke:#000000;stroke-width:0.64832127;stroke-miterlimit:4;stroke-opacity:1;stroke-dasharray:none"
             id="path8499"
             sodipodi:cx="442.91339"
             sodipodi:cy="311.81094"
             sodipodi:rx="17.716536"
             sodipodi:ry="35.433071"
             d="m 460.62993,311.81094 c 0,19.56915 -7.93197,35.43307 -17.71654,35.43307 -9.78457,0 -17.71653,-15.86392 -17.71653,-35.43307 0,-19.56914 7.93196,-35.43307 17.71653,-35.43307 9.78457,0 17.71654,15.86393 17.71654,35.43307 z"
             transform="matrix(2.1719,0,0,1.08595,-784.79824,-526.40773)" />
          <path
             sodipodi:type="arc"
             style="fill:none;stroke:#000000;stroke-width:9.27426624;stroke-miterlimit:4;stroke-opacity:1;stroke-dasharray:none"
             id="path8501"
             sodipodi:cx="248.03149"
             sodipodi:cy="400.39362"
             sodipodi:rx="70.866142"
             sodipodi:ry="53.149605"
             d="m 318.89764,400.39362 c 0,29.35371 -31.72786,53.1496 -70.86615,53.1496 -39.13829,0 -70.86614,-23.79589 -70.86614,-53.1496 0,-29.35372 31.72785,-53.14961 70.86614,-53.14961 39.13829,0 70.86615,23.79589 70.86615,53.14961 z"
             transform="matrix(0.092975,0,0,0.12396667,154.10463,-180.73919)" />
          <path
             transform="matrix(-0.0464875,-0.08051871,0.10735828,-0.06198334,195.30026,-171.27258)"
             d="m 318.89764,400.39362 c 0,29.35371 -31.72786,53.1496 -70.86615,53.1496 -39.13829,0 -70.86614,-23.79589 -70.86614,-53.1496 0,-29.35372 31.72785,-53.14961 70.86614,-53.14961 39.13829,0 70.86615,23.79589 70.86615,53.14961 z"
             sodipodi:ry="53.149605"
             sodipodi:rx="70.866142"
             sodipodi:cy="400.39362"
             sodipodi:cx="248.03149"
             id="path8503"
             style="fill:none;stroke:#000000;stroke-width:9.27426624;stroke-miterlimit:4;stroke-opacity:1;stroke-dasharray:none"
             sodipodi:type="arc" />
          <path
             sodipodi:type="arc"
             style="fill:none;stroke:#000000;stroke-width:9.27426624;stroke-miterlimit:4;stroke-opacity:1;stroke-dasharray:none"
             id="path8505"
             sodipodi:cx="248.03149"
             sodipodi:cy="400.39362"
             sodipodi:rx="70.866142"
             sodipodi:ry="53.149605"
             d="m 318.89764,400.39362 c 0,29.35371 -31.72786,53.1496 -70.86615,53.1496 -39.13829,0 -70.86614,-23.79589 -70.86614,-53.1496 0,-29.35372 31.72785,-53.14961 70.86614,-53.14961 39.13829,0 70.86615,23.79589 70.86615,53.14961 z"
             transform="matrix(0.0464875,-0.08051871,-0.10735828,-0.06198334,159.01536,-171.27258)" />
        </g>
      </g>
      <path
         transform="matrix(1.3239667,0,0,0.99297499,-93.326578,-354.68917)"
         d="m 177.16535,453.54324 c 0,39.13829 -23.79589,70.86615 -53.1496,70.86615 -29.353719,0 -53.149608,-31.72786 -53.149608,-70.86615 0,-39.13829 23.795889,-70.86614 53.149608,-70.86614 29.35371,0 53.1496,31.72785 53.1496,70.86614 z"
         sodipodi:ry="70.866142"
         sodipodi:rx="53.149605"
         sodipodi:cy="453.54324"
         sodipodi:cx="124.01575"
         id="path8507"
         style="fill:none;stroke:#000000;stroke-width:0.86837524;stroke-miterlimit:4;stroke-opacity:1;stroke-dasharray:none"
         sodipodi:type="arc" />
    </g>
    <g
       transform="matrix(0,1,-1,0,-127.5604,-1574.2297)"
       id="g3357">
      <path
         inkscape:connector-curvature="0"
         id="path3251"
         inkscape:label="part"
         style="fill:none;stroke:#000000"
         d="m 1208.7677,-128.0604 0,-41.498 14.1732,0 0,-35.1142 -14.1732,0 0,-41.6575 14.1732,0 0,-35.1141 -14.1732,0 0,-41.6575 14.1732,0 0,-35.1142 -14.1732,0 0,-41.6575 14.1732,0 0,-35.1141 -14.1732,0 0,-41.6575 14.1732,0 0,-35.1142 -14.1732,0 0,-41.6575 14.1732,0 0,-35.1141 -14.1732,0 0,-41.6575 14.1732,0 0,-35.1142 -14.1732,0 0,-41.6575 14.1732,0 0,-35.1141 -14.1732,0 0,-41.6575 14.1732,0 0,-35.1142 -14.1732,0 0,-41.6575 14.1732,0 0,-35.1142 -14.1732,0 0,-41.6574 14.1732,0 0,-35.1142 -14.1732,0 0,-27.3248" />
      <path
         inkscape:connector-curvature="0"
         id="path3253"
         inkscape:label="part"
         style="fill:none;stroke:#000000"
         d="m 1208.7677,-999.7139 42.3602,0 0,-14.1732 35.752,0 0,14.1732 42.2008,0 0,-14.1732 35.752,0 0,14.1732 42.2008,0 0,-14.1732 35.7519,0 0,14.1732 42.2008,0 0,-14.1732 35.752,0 0,14.1732 28.187,0" />
      <path
         inkscape:connector-curvature="0"
         id="path3255"
         inkscape:label="part"
         style="fill:none;stroke:#000000"
         d="m 1548.9252,-999.7139 0,27.0059 14.1732,0 0,35.752 -14.1732,0 0,41.0196 14.1732,0 0,35.752 -14.1732,0 0,41.0197 14.1732,0 0,35.752 -14.1732,0 0,41.0197 14.1732,0 0,35.7519 -14.1732,0 0,41.0197 14.1732,0 0,35.752 -14.1732,0 0,41.0197 14.1732,0 0,35.7519 -14.1732,0 0,41.0197 14.1732,0 0,35.752 -14.1732,0 0,41.0197 14.1732,0 0,35.7519 -14.1732,0 0,41.0197 14.1732,0 0,35.752 -14.1732,0 0,41.0197 14.1732,0 0,35.7519 -14.1732,0 0,41.0197 14.1732,0 0,35.752 -14.1732,0 0,41.1791" />
      <path
         inkscape:connector-curvature="0"
         id="path3257"
         inkscape:label="part"
         style="fill:none;stroke:#000000"
         d="m 1548.9252,-128.0604 -28.5059,0 0,-14.1732 -35.1142,0 0,14.1732 -42.8386,0 0,-14.1732 -35.1142,0 0,14.1732 -42.8385,0 0,-14.1732 -35.1142,0 0,14.1732 -42.8386,0 0,-14.1732 -35.1142,0 0,14.1732 -42.6791,0" />
    </g>
    <g
       id="g3441">
      <g
         id="g3435">
        <path
           transform="matrix(2.1719,0,0,1.08595,-784.79824,-526.40773)"
           d="m 460.62993,311.81094 a 17.716536,35.433071 0 1 1 -35.43307,0 17.716536,35.433071 0 1 1 35.43307,0 z"
           sodipodi:ry="35.433071"
           sodipodi:rx="17.716536"
           sodipodi:cy="311.81094"
           sodipodi:cx="442.91339"
           id="path3393"
           style="fill:none;stroke:#000000;stroke-width:0.64832127;stroke-miterlimit:4;stroke-opacity:1;stroke-dasharray:none"
           sodipodi:type="arc" />
        <path
           transform="matrix(0.092975,0,0,0.12396667,154.10463,-180.73919)"
           d="m 318.89764,400.39362 a 70.866142,53.149605 0 1 1 -141.73229,0 70.866142,53.149605 0 1 1 141.73229,0 z"
           sodipodi:ry="53.149605"
           sodipodi:rx="70.866142"
           sodipodi:cy="400.39362"
           sodipodi:cx="248.03149"
           id="path3395"
           style="fill:none;stroke:#000000;stroke-width:9.27426624;stroke-miterlimit:4;stroke-opacity:1;stroke-dasharray:none"
           sodipodi:type="arc" />
        <path
           sodipodi:type="arc"
           style="fill:none;stroke:#000000;stroke-width:9.27426624;stroke-miterlimit:4;stroke-opacity:1;stroke-dasharray:none"
           id="path3411"
           sodipodi:cx="248.03149"
           sodipodi:cy="400.39362"
           sodipodi:rx="70.866142"
           sodipodi:ry="53.149605"
           d="m 318.89764,400.39362 a 70.866142,53.149605 0 1 1 -141.73229,0 70.866142,53.149605 0 1 1 141.73229,0 z"
           transform="matrix(-0.0464875,-0.08051871,0.10735828,-0.06198334,195.30026,-171.27258)" />
        <path
           transform="matrix(0.0464875,-0.08051871,-0.10735828,-0.06198334,159.01536,-171.27258)"
           d="m 318.89764,400.39362 a 70.866142,53.149605 0 1 1 -141.73229,0 70.866142,53.149605 0 1 1 141.73229,0 z"
           sodipodi:ry="53.149605"
           sodipodi:rx="70.866142"
           sodipodi:cy="400.39362"
           sodipodi:cx="248.03149"
           id="path3425"
           style="fill:none;stroke:#000000;stroke-width:9.27426624;stroke-miterlimit:4;stroke-opacity:1;stroke-dasharray:none"
           sodipodi:type="arc" />
      </g>
    </g>
    <g
       transform="translate(787.97874,-1318.6471)"
       inkscape:label="0"
       id="g3483">
      <path
         inkscape:connector-curvature="0"
         d="m -61.100787,1107.2622 3.100393,-5.3716"
         style="fill:none;stroke:#000000"
         id="path3485" />
      <path
         inkscape:connector-curvature="0"
         d="m -58.000394,1101.8906 6.200788,0"
         style="fill:none;stroke:#000000"
         id="path3487" />
      <path
         inkscape:connector-curvature="0"
         d="m -51.799606,1101.8906 3.100393,5.3716"
         style="fill:none;stroke:#000000"
         id="path3489" />
      <path
         inkscape:connector-curvature="0"
         d="m -48.699213,1107.2622 -3.100393,5.3717"
         style="fill:none;stroke:#000000"
         id="path3491" />
      <path
         inkscape:connector-curvature="0"
         d="m -51.799606,1112.6339 -6.200788,0"
         style="fill:none;stroke:#000000"
         id="path3493" />
      <path
         inkscape:connector-curvature="0"
         d="m -58.000394,1112.6339 -3.100393,-5.3717"
         style="fill:none;stroke:#000000"
         id="path3495" />
      <path
         inkscape:connector-curvature="0"
         d="m -61.100787,997.46221 3.100393,-5.37166"
         style="fill:none;stroke:#000000"
         id="path3497" />
      <path
         inkscape:connector-curvature="0"
         d="m -58.000394,992.09055 6.200788,0"
         style="fill:none;stroke:#000000"
         id="path3499" />
      <path
         inkscape:connector-curvature="0"
         d="m -51.799606,992.09055 3.100393,5.37166"
         style="fill:none;stroke:#000000"
         id="path3501" />
      <path
         inkscape:connector-curvature="0"
         d="m -48.699213,997.46221 -3.100393,5.37169"
         style="fill:none;stroke:#000000"
         id="path3503" />
      <path
         inkscape:connector-curvature="0"
         d="m -51.799606,1002.8339 -6.200788,0"
         style="fill:none;stroke:#000000"
         id="path3505" />
      <path
         inkscape:connector-curvature="0"
         d="m -58.000394,1002.8339 -3.100393,-5.37169"
         style="fill:none;stroke:#000000"
         id="path3507" />
      <path
         inkscape:connector-curvature="0"
         d="m -38.969291,1052.3622 0.850393,-8.1035"
         style="fill:none;stroke:#000000"
         id="path3509" />
      <path
         inkscape:connector-curvature="0"
         d="m -38.118898,1044.2587 2.519292,-7.7457"
         style="fill:none;stroke:#000000"
         id="path3511" />
      <path
         inkscape:connector-curvature="0"
         d="m -35.599606,1036.513 4.07126,-7.0583"
         style="fill:none;stroke:#000000"
         id="path3513" />
      <path
         inkscape:connector-curvature="0"
         d="m -31.528346,1029.4547 5.453149,-6.0519"
         style="fill:none;stroke:#000000"
         id="path3515" />
      <path
         inkscape:connector-curvature="0"
         d="m -26.075197,1023.4028 6.590551,-4.7906"
         style="fill:none;stroke:#000000"
         id="path3517" />
      <path
         inkscape:connector-curvature="0"
         d="m -19.484646,1018.6122 7.440945,-3.313"
         style="fill:none;stroke:#000000"
         id="path3519" />
      <path
         inkscape:connector-curvature="0"
         d="m -12.043701,1015.2992 7.968898,-1.6937"
         style="fill:none;stroke:#000000"
         id="path3521" />
      <path
         inkscape:connector-curvature="0"
         d="m -4.074803,1013.6055 8.149606,0"
         style="fill:none;stroke:#000000"
         id="path3523" />
      <path
         inkscape:connector-curvature="0"
         d="m 4.074803,1013.6055 7.968898,1.6937"
         style="fill:none;stroke:#000000"
         id="path3525" />
      <path
         inkscape:connector-curvature="0"
         d="m 12.043701,1015.2992 7.440945,3.313"
         style="fill:none;stroke:#000000"
         id="path3527" />
      <path
         inkscape:connector-curvature="0"
         d="m 19.484646,1018.6122 6.590551,4.7906"
         style="fill:none;stroke:#000000"
         id="path3529" />
      <path
         inkscape:connector-curvature="0"
         d="m 26.075197,1023.4028 5.453149,6.0519"
         style="fill:none;stroke:#000000"
         id="path3531" />
      <path
         inkscape:connector-curvature="0"
         d="m 31.528346,1029.4547 4.07126,7.0583"
         style="fill:none;stroke:#000000"
         id="path3533" />
      <path
         inkscape:connector-curvature="0"
         d="m 35.599606,1036.513 2.519292,7.7457"
         style="fill:none;stroke:#000000"
         id="path3535" />
      <path
         inkscape:connector-curvature="0"
         d="m 38.118898,1044.2587 0.850393,8.1035"
         style="fill:none;stroke:#000000"
         id="path3537" />
      <path
         inkscape:connector-curvature="0"
         d="m 38.969291,1052.3622 -0.850393,8.1035"
         style="fill:none;stroke:#000000"
         id="path3539" />
      <path
         inkscape:connector-curvature="0"
         d="m 38.118898,1060.4657 -2.519292,7.7457"
         style="fill:none;stroke:#000000"
         id="path3541" />
      <path
         inkscape:connector-curvature="0"
         d="m 35.599606,1068.2114 -4.07126,7.0583"
         style="fill:none;stroke:#000000"
         id="path3543" />
      <path
         inkscape:connector-curvature="0"
         d="m 31.528346,1075.2697 -5.453149,6.052"
         style="fill:none;stroke:#000000"
         id="path3545" />
      <path
         inkscape:connector-curvature="0"
         d="m 26.075197,1081.3217 -6.590551,4.7905"
         style="fill:none;stroke:#000000"
         id="path3547" />
      <path
         inkscape:connector-curvature="0"
         d="m 19.484646,1086.1122 -7.440945,3.313"
         style="fill:none;stroke:#000000"
         id="path3549" />
      <path
         inkscape:connector-curvature="0"
         d="m 12.043701,1089.4252 -7.968898,1.6937"
         style="fill:none;stroke:#000000"
         id="path3551" />
      <path
         inkscape:connector-curvature="0"
         d="m 4.074803,1091.1189 -8.149606,0"
         style="fill:none;stroke:#000000"
         id="path3553" />
      <path
         inkscape:connector-curvature="0"
         d="m -4.074803,1091.1189 -7.968898,-1.6937"
         style="fill:none;stroke:#000000"
         id="path3555" />
      <path
         inkscape:connector-curvature="0"
         d="m -12.043701,1089.4252 -7.440945,-3.313"
         style="fill:none;stroke:#000000"
         id="path3557" />
      <path
         inkscape:connector-curvature="0"
         d="m -19.484646,1086.1122 -6.590551,-4.7905"
         style="fill:none;stroke:#000000"
         id="path3559" />
      <path
         inkscape:connector-curvature="0"
         d="m -26.075197,1081.3217 -5.453149,-6.052"
         style="fill:none;stroke:#000000"
         id="path3561" />
      <path
         inkscape:connector-curvature="0"
         d="m -31.528346,1075.2697 -4.07126,-7.0583"
         style="fill:none;stroke:#000000"
         id="path3563" />
      <path
         inkscape:connector-curvature="0"
         d="m -35.599606,1068.2114 -2.519292,-7.7457"
         style="fill:none;stroke:#000000"
         id="path3565" />
      <path
         inkscape:connector-curvature="0"
         d="m -38.118898,1060.4657 -0.850393,-8.1035"
         style="fill:none;stroke:#000000"
         id="path3567" />
      <path
         inkscape:connector-curvature="0"
         d="m 48.699213,1107.2622 3.100393,-5.3716"
         style="fill:none;stroke:#000000"
         id="path3569" />
      <path
         inkscape:connector-curvature="0"
         d="m 51.799606,1101.8906 6.200788,0"
         style="fill:none;stroke:#000000"
         id="path3571" />
      <path
         inkscape:connector-curvature="0"
         d="m 58.000394,1101.8906 3.100393,5.3716"
         style="fill:none;stroke:#000000"
         id="path3573" />
      <path
         inkscape:connector-curvature="0"
         d="m 61.100787,1107.2622 -3.100393,5.3717"
         style="fill:none;stroke:#000000"
         id="path3575" />
      <path
         inkscape:connector-curvature="0"
         d="m 58.000394,1112.6339 -6.200788,0"
         style="fill:none;stroke:#000000"
         id="path3577" />
      <path
         inkscape:connector-curvature="0"
         d="m 51.799606,1112.6339 -3.100393,-5.3717"
         style="fill:none;stroke:#000000"
         id="path3579" />
      <path
         inkscape:connector-curvature="0"
         d="m 48.699213,997.46221 3.100393,-5.37166"
         style="fill:none;stroke:#000000"
         id="path3581" />
      <path
         inkscape:connector-curvature="0"
         d="m 51.799606,992.09055 6.200788,0"
         style="fill:none;stroke:#000000"
         id="path3583" />
      <path
         inkscape:connector-curvature="0"
         d="m 58.000394,992.09055 3.100393,5.37166"
         style="fill:none;stroke:#000000"
         id="path3585" />
      <path
         inkscape:connector-curvature="0"
         d="m 61.100787,997.46221 -3.100393,5.37169"
         style="fill:none;stroke:#000000"
         id="path3587" />
      <path
         inkscape:connector-curvature="0"
         d="m 58.000394,1002.8339 -6.200788,0"
         style="fill:none;stroke:#000000"
         id="path3589" />
      <path
         inkscape:connector-curvature="0"
         d="m 51.799606,1002.8339 -3.100393,-5.37169"
         style="fill:none;stroke:#000000"
         id="path3591" />
    </g>
    <g
       id="g8915"
       inkscape:label="0"
       transform="matrix(0,1,-1,0,1839.5118,-107.66514)">
      <path
         id="path8917"
         style="fill:none;stroke:#000000"
         d="m -61.100787,1124.9787 0,-35.433"
         inkscape:connector-curvature="0" />
      <path
         id="path8919"
         style="fill:none;stroke:#000000"
         d="m -61.100787,1089.5457 3.100393,-5.3717"
         inkscape:connector-curvature="0" />
      <path
         id="path8921"
         style="fill:none;stroke:#000000"
         d="m -58.000394,1084.174 6.200788,0"
         inkscape:connector-curvature="0" />
      <path
         id="path8923"
         style="fill:none;stroke:#000000"
         d="m -51.799606,1084.174 3.100393,5.3717"
         inkscape:connector-curvature="0" />
      <path
         id="path8925"
         style="fill:none;stroke:#000000"
         d="m -48.699213,1089.5457 0,35.433"
         inkscape:connector-curvature="0" />
      <path
         id="path8927"
         style="fill:none;stroke:#000000"
         d="m -48.699213,1124.9787 -3.100393,5.3717"
         inkscape:connector-curvature="0" />
      <path
         id="path8929"
         style="fill:none;stroke:#000000"
         d="m -51.799606,1130.3504 -6.200788,0"
         inkscape:connector-curvature="0" />
      <path
         id="path8931"
         style="fill:none;stroke:#000000"
         d="m -58.000394,1130.3504 -3.100393,-5.3717"
         inkscape:connector-curvature="0" />
      <path
         id="path8933"
         style="fill:none;stroke:#000000"
         d="m -61.100787,1015.1787 0,-35.43303"
         inkscape:connector-curvature="0" />
      <path
         id="path8935"
         style="fill:none;stroke:#000000"
         d="m -61.100787,979.74567 3.100393,-5.37165"
         inkscape:connector-curvature="0" />
      <path
         id="path8937"
         style="fill:none;stroke:#000000"
         d="m -58.000394,974.37402 6.200788,0"
         inkscape:connector-curvature="0" />
      <path
         id="path8939"
         style="fill:none;stroke:#000000"
         d="m -51.799606,974.37402 3.100393,5.37165"
         inkscape:connector-curvature="0" />
      <path
         id="path8941"
         style="fill:none;stroke:#000000"
         d="m -48.699213,979.74567 0,35.43303"
         inkscape:connector-curvature="0" />
      <path
         id="path8943"
         style="fill:none;stroke:#000000"
         d="m -48.699213,1015.1787 -3.100393,5.3717"
         inkscape:connector-curvature="0" />
      <path
         id="path8945"
         style="fill:none;stroke:#000000"
         d="m -51.799606,1020.5504 -6.200788,0"
         inkscape:connector-curvature="0" />
      <path
         id="path8947"
         style="fill:none;stroke:#000000"
         d="m -58.000394,1020.5504 -3.100393,-5.3717"
         inkscape:connector-curvature="0" />
      <path
         id="path8949"
         style="fill:none;stroke:#000000"
         d="m -38.969291,1070.0787 0,-35.433"
         inkscape:connector-curvature="0" />
      <path
         id="path8951"
         style="fill:none;stroke:#000000"
         d="m -38.969291,1034.6457 0.850393,-8.1036"
         inkscape:connector-curvature="0" />
      <path
         id="path8953"
         style="fill:none;stroke:#000000"
         d="m -38.118898,1026.5421 2.519292,-7.7456"
         inkscape:connector-curvature="0" />
      <path
         id="path8955"
         style="fill:none;stroke:#000000"
         d="m -35.599606,1018.7965 4.07126,-7.0583"
         inkscape:connector-curvature="0" />
      <path
         id="path8957"
         style="fill:none;stroke:#000000"
         d="m -31.528346,1011.7382 5.453149,-6.052"
         inkscape:connector-curvature="0" />
      <path
         id="path8959"
         style="fill:none;stroke:#000000"
         d="m -26.075197,1005.6862 6.590551,-4.7905"
         inkscape:connector-curvature="0" />
      <path
         id="path8961"
         style="fill:none;stroke:#000000"
         d="m -19.484646,1000.8957 7.440945,-3.31302"
         inkscape:connector-curvature="0" />
      <path
         id="path8963"
         style="fill:none;stroke:#000000"
         d="m -12.043701,997.58268 7.968898,-1.6937"
         inkscape:connector-curvature="0" />
      <path
         id="path8965"
         style="fill:none;stroke:#000000"
         d="m -4.074803,995.88898 8.149606,0"
         inkscape:connector-curvature="0" />
      <path
         id="path8967"
         style="fill:none;stroke:#000000"
         d="m 4.074803,995.88898 7.968898,1.6937"
         inkscape:connector-curvature="0" />
      <path
         id="path8969"
         style="fill:none;stroke:#000000"
         d="m 12.043701,997.58268 7.440945,3.31302"
         inkscape:connector-curvature="0" />
      <path
         id="path8971"
         style="fill:none;stroke:#000000"
         d="m 19.484646,1000.8957 6.590551,4.7905"
         inkscape:connector-curvature="0" />
      <path
         id="path8973"
         style="fill:none;stroke:#000000"
         d="m 26.075197,1005.6862 5.453149,6.052"
         inkscape:connector-curvature="0" />
      <path
         id="path8975"
         style="fill:none;stroke:#000000"
         d="m 31.528346,1011.7382 4.07126,7.0583"
         inkscape:connector-curvature="0" />
      <path
         id="path8977"
         style="fill:none;stroke:#000000"
         d="m 35.599606,1018.7965 2.519292,7.7456"
         inkscape:connector-curvature="0" />
      <path
         id="path8979"
         style="fill:none;stroke:#000000"
         d="m 38.118898,1026.5421 0.850393,8.1036"
         inkscape:connector-curvature="0" />
      <path
         id="path8981"
         style="fill:none;stroke:#000000"
         d="m 38.969291,1034.6457 0,35.433"
         inkscape:connector-curvature="0" />
      <path
         id="path8983"
         style="fill:none;stroke:#000000"
         d="m 38.969291,1070.0787 -0.850393,8.1036"
         inkscape:connector-curvature="0" />
      <path
         id="path8985"
         style="fill:none;stroke:#000000"
         d="m 38.118898,1078.1823 -2.519292,7.7457"
         inkscape:connector-curvature="0" />
      <path
         id="path8987"
         style="fill:none;stroke:#000000"
         d="m 35.599606,1085.928 -4.07126,7.0582"
         inkscape:connector-curvature="0" />
      <path
         id="path8989"
         style="fill:none;stroke:#000000"
         d="m 31.528346,1092.9862 -5.453149,6.052"
         inkscape:connector-curvature="0" />
      <path
         id="path8991"
         style="fill:none;stroke:#000000"
         d="m 26.075197,1099.0382 -6.590551,4.7905"
         inkscape:connector-curvature="0" />
      <path
         id="path8993"
         style="fill:none;stroke:#000000"
         d="m 19.484646,1103.8287 -7.440945,3.313"
         inkscape:connector-curvature="0" />
      <path
         id="path8995"
         style="fill:none;stroke:#000000"
         d="m 12.043701,1107.1417 -7.968898,1.6937"
         inkscape:connector-curvature="0" />
      <path
         id="path8997"
         style="fill:none;stroke:#000000"
         d="m 4.074803,1108.8354 -8.149606,0"
         inkscape:connector-curvature="0" />
      <path
         id="path8999"
         style="fill:none;stroke:#000000"
         d="m -4.074803,1108.8354 -7.968898,-1.6937"
         inkscape:connector-curvature="0" />
      <path
         id="path9001"
         style="fill:none;stroke:#000000"
         d="m -12.043701,1107.1417 -7.440945,-3.313"
         inkscape:connector-curvature="0" />
      <path
         id="path9003"
         style="fill:none;stroke:#000000"
         d="m -19.484646,1103.8287 -6.590551,-4.7905"
         inkscape:connector-curvature="0" />
      <path
         id="path9005"
         style="fill:none;stroke:#000000"
         d="m -26.075197,1099.0382 -5.453149,-6.052"
         inkscape:connector-curvature="0" />
      <path
         id="path9007"
         style="fill:none;stroke:#000000"
         d="m -31.528346,1092.9862 -4.07126,-7.0582"
         inkscape:connector-curvature="0" />
      <path
         id="path9009"
         style="fill:none;stroke:#000000"
         d="m -35.599606,1085.928 -2.519292,-7.7457"
         inkscape:connector-curvature="0" />
      <path
         id="path9011"
         style="fill:none;stroke:#000000"
         d="m -38.118898,1078.1823 -0.850393,-8.1036"
         inkscape:connector-curvature="0" />
      <path
         id="path9013"
         style="fill:none;stroke:#000000"
         d="m 48.699213,1124.9787 0,-35.433"
         inkscape:connector-curvature="0" />
      <path
         id="path9015"
         style="fill:none;stroke:#000000"
         d="m 48.699213,1089.5457 3.100393,-5.3717"
         inkscape:connector-curvature="0" />
      <path
         id="path9017"
         style="fill:none;stroke:#000000"
         d="m 51.799606,1084.174 6.200788,0"
         inkscape:connector-curvature="0" />
      <path
         id="path9019"
         style="fill:none;stroke:#000000"
         d="m 58.000394,1084.174 3.100393,5.3717"
         inkscape:connector-curvature="0" />
      <path
         id="path9021"
         style="fill:none;stroke:#000000"
         d="m 61.100787,1089.5457 0,35.433"
         inkscape:connector-curvature="0" />
      <path
         id="path9023"
         style="fill:none;stroke:#000000"
         d="m 61.100787,1124.9787 -3.100393,5.3717"
         inkscape:connector-curvature="0" />
      <path
         id="path9025"
         style="fill:none;stroke:#000000"
         d="m 58.000394,1130.3504 -6.200788,0"
         inkscape:connector-curvature="0" />
      <path
         id="path9027"
         style="fill:none;stroke:#000000"
         d="m 51.799606,1130.3504 -3.100393,-5.3717"
         inkscape:connector-curvature="0" />
      <path
         id="path9029"
         style="fill:none;stroke:#000000"
         d="m 48.699213,1015.1787 0,-35.43303"
         inkscape:connector-curvature="0" />
      <path
         id="path9031"
         style="fill:none;stroke:#000000"
         d="m 48.699213,979.74567 3.100393,-5.37165"
         inkscape:connector-curvature="0" />
      <path
         id="path9033"
         style="fill:none;stroke:#000000"
         d="m 51.799606,974.37402 6.200788,0"
         inkscape:connector-curvature="0" />
      <path
         id="path9035"
         style="fill:none;stroke:#000000"
         d="m 58.000394,974.37402 3.100393,5.37165"
         inkscape:connector-curvature="0" />
      <path
         id="path9037"
         style="fill:none;stroke:#000000"
         d="m 61.100787,979.74567 0,35.43303"
         inkscape:connector-curvature="0" />
      <path
         id="path9039"
         style="fill:none;stroke:#000000"
         d="m 61.100787,1015.1787 -3.100393,5.3717"
         inkscape:connector-curvature="0" />
      <path
         id="path9041"
         style="fill:none;stroke:#000000"
         d="m 58.000394,1020.5504 -6.200788,0"
         inkscape:connector-curvature="0" />
      <path
         id="path9043"
         style="fill:none;stroke:#000000"
         d="m 51.799606,1020.5504 -3.100393,-5.3717"
         inkscape:connector-curvature="0" />
    </g>
    <g
       transform="translate(-1208.2677,-1605.1182)"
       id="g9374">
      <path
         d="m 1222.9409,1051.8609 0,-52.99017 -14.1732,0 0,-35.75196 14.1732,0 0,-38.81693"
         style="fill:none;stroke:#000000"
         inkscape:label="part"
         id="path9376"
         inkscape:connector-curvature="0" />
      <path
         d="m 1222.9409,924.30184 28.187,0 0,-14.17323 35.752,0 0,14.17323 42.2008,0 0,-14.17323 35.752,0 0,14.17323 42.2008,0 0,-14.17323 35.7519,0 0,14.17323 42.2008,0 0,-14.17323 35.752,0 0,14.17323 42.3602,0"
         style="fill:none;stroke:#000000"
         inkscape:label="part"
         id="path9378"
         inkscape:connector-curvature="0" />
      <path
         d="m 1563.0984,924.30184 0,39.13582 -14.1732,0 0,35.11418 14.1732,0 0,53.30906"
         style="fill:none;stroke:#000000"
         inkscape:label="part"
         id="path9380"
         inkscape:connector-curvature="0" />
      <path
         d="m 1563.0984,1051.8609 -42.6791,0 0,-14.1732 -35.1142,0 0,14.1732 -42.8386,0 0,-14.1732 -35.1142,0 0,14.1732 -42.8385,0 0,-14.1732 -35.1142,0 0,14.1732 -42.8386,0 0,-14.1732 -35.1142,0 0,14.1732 -28.5059,0"
         style="fill:none;stroke:#000000"
         inkscape:label="part"
         id="path9382"
         inkscape:connector-curvature="0" />
    </g>
    <path
       sodipodi:type="arc"
       style="fill:none;stroke:#000000;stroke-width:1.23681819;stroke-miterlimit:4;stroke-opacity:1;stroke-dasharray:none"
       id="path9384"
       sodipodi:cx="124.01575"
       sodipodi:cy="311.81094"
       sodipodi:rx="53.149605"
       sodipodi:ry="35.433071"
       d="m 177.16535,311.81094 a 53.149605,35.433071 0 1 1 -106.299208,0 53.149605,35.433071 0 1 1 106.299208,0 z"
       transform="matrix(0.65730002,0,0,0.98594999,-10.649411,-931.05341)" />
    <path
       sodipodi:type="arc"
       style="fill:none;stroke:#000000;stroke-width:1.23681819;stroke-miterlimit:4;stroke-opacity:1;stroke-dasharray:none"
       id="path9386"
       sodipodi:cx="265.74802"
       sodipodi:cy="311.81094"
       sodipodi:rx="53.149605"
       sodipodi:ry="35.433071"
       d="m 318.89762,311.81094 a 53.149605,35.433071 0 1 1 -106.29921,0 53.149605,35.433071 0 1 1 106.29921,0 z"
       transform="matrix(0.65730002,0,0,0.98594999,108.78839,-931.05341)" />
    <path
       transform="matrix(0.65730002,0,0,0.98594999,2.489178,-931.05341)"
       d="m 318.89762,311.81094 a 53.149605,35.433071 0 1 1 -106.29921,0 53.149605,35.433071 0 1 1 106.29921,0 z"
       sodipodi:ry="35.433071"
       sodipodi:rx="53.149605"
       sodipodi:cy="311.81094"
       sodipodi:cx="265.74802"
       id="path9388"
       style="fill:none;stroke:#000000;stroke-width:1.23681819;stroke-miterlimit:4;stroke-opacity:1;stroke-dasharray:none"
       sodipodi:type="arc" />
    <g
       id="g9895"
       transform="translate(-263.62204,1324.3869)">
      <g
         transform="translate(528.45276,-904.04467)"
         id="g4297">
        <path
           inkscape:connector-curvature="0"
           id="path3997"
           inkscape:label="part"
           style="fill:none;stroke:#000000"
           d="m 3.5433071,198.4252 35.2736219,0 0,-14.17323 35.751969,0 0,14.17323 35.114172,0 0,-14.17323 35.75197,0 0,14.17323 21.10039,0" />
        <path
           inkscape:connector-curvature="0"
           id="path3999"
           inkscape:label="part"
           style="fill:none;stroke:#000000"
           d="m 166.53543,198.4252 0,21.10039 14.17323,0 0,35.75197 -14.17323,0 0,35.11417 14.17323,0 0,35.75197 -14.17323,0 0,35.27362" />
        <path
           inkscape:connector-curvature="0"
           id="path4001"
           inkscape:label="part"
           style="fill:none;stroke:#000000"
           d="m 166.53543,361.41732 -21.41929,0 0,-14.17323 -35.11417,0 0,14.17323 -35.75197,0 0,-14.17323 -35.114173,0 0,14.17323 -35.5925199,0" />
        <path
           inkscape:connector-curvature="0"
           id="path4003"
           inkscape:label="part"
           style="fill:none;stroke:#000000"
           d="m 3.5433071,361.41732 0,-35.59252 14.1732279,0 0,-35.11417 -14.1732279,0 0,-35.75197 14.1732279,0 0,-35.11417 -14.1732279,0 0,-21.41929" />
      </g>
      <g
         transform="translate(619.67165,-1681.836)"
         inkscape:label="0"
         id="g9785">
        <path
           inkscape:connector-curvature="0"
           d="m -61.100787,1107.2622 3.100393,-5.3716"
           style="fill:none;stroke:#000000"
           id="path9787" />
        <path
           inkscape:connector-curvature="0"
           d="m -58.000394,1101.8906 6.200788,0"
           style="fill:none;stroke:#000000"
           id="path9789" />
        <path
           inkscape:connector-curvature="0"
           d="m -51.799606,1101.8906 3.100393,5.3716"
           style="fill:none;stroke:#000000"
           id="path9791" />
        <path
           inkscape:connector-curvature="0"
           d="m -48.699213,1107.2622 -3.100393,5.3717"
           style="fill:none;stroke:#000000"
           id="path9793" />
        <path
           inkscape:connector-curvature="0"
           d="m -51.799606,1112.6339 -6.200788,0"
           style="fill:none;stroke:#000000"
           id="path9795" />
        <path
           inkscape:connector-curvature="0"
           d="m -58.000394,1112.6339 -3.100393,-5.3717"
           style="fill:none;stroke:#000000"
           id="path9797" />
        <path
           inkscape:connector-curvature="0"
           d="m -61.100787,997.46221 3.100393,-5.37166"
           style="fill:none;stroke:#000000"
           id="path9799" />
        <path
           inkscape:connector-curvature="0"
           d="m -58.000394,992.09055 6.200788,0"
           style="fill:none;stroke:#000000"
           id="path9801" />
        <path
           inkscape:connector-curvature="0"
           d="m -51.799606,992.09055 3.100393,5.37166"
           style="fill:none;stroke:#000000"
           id="path9803" />
        <path
           inkscape:connector-curvature="0"
           d="m -48.699213,997.46221 -3.100393,5.37169"
           style="fill:none;stroke:#000000"
           id="path9805" />
        <path
           inkscape:connector-curvature="0"
           d="m -51.799606,1002.8339 -6.200788,0"
           style="fill:none;stroke:#000000"
           id="path9807" />
        <path
           inkscape:connector-curvature="0"
           d="m -58.000394,1002.8339 -3.100393,-5.37169"
           style="fill:none;stroke:#000000"
           id="path9809" />
        <path
           inkscape:connector-curvature="0"
           d="m -38.969291,1052.3622 0.850393,-8.1035"
           style="fill:none;stroke:#000000"
           id="path9811" />
        <path
           inkscape:connector-curvature="0"
           d="m -38.118898,1044.2587 2.519292,-7.7457"
           style="fill:none;stroke:#000000"
           id="path9813" />
        <path
           inkscape:connector-curvature="0"
           d="m -35.599606,1036.513 4.07126,-7.0583"
           style="fill:none;stroke:#000000"
           id="path9815" />
        <path
           inkscape:connector-curvature="0"
           d="m -31.528346,1029.4547 5.453149,-6.0519"
           style="fill:none;stroke:#000000"
           id="path9817" />
        <path
           inkscape:connector-curvature="0"
           d="m -26.075197,1023.4028 6.590551,-4.7906"
           style="fill:none;stroke:#000000"
           id="path9819" />
        <path
           inkscape:connector-curvature="0"
           d="m -19.484646,1018.6122 7.440945,-3.313"
           style="fill:none;stroke:#000000"
           id="path9821" />
        <path
           inkscape:connector-curvature="0"
           d="m -12.043701,1015.2992 7.968898,-1.6937"
           style="fill:none;stroke:#000000"
           id="path9823" />
        <path
           inkscape:connector-curvature="0"
           d="m -4.074803,1013.6055 8.149606,0"
           style="fill:none;stroke:#000000"
           id="path9825" />
        <path
           inkscape:connector-curvature="0"
           d="m 4.074803,1013.6055 7.968898,1.6937"
           style="fill:none;stroke:#000000"
           id="path9827" />
        <path
           inkscape:connector-curvature="0"
           d="m 12.043701,1015.2992 7.440945,3.313"
           style="fill:none;stroke:#000000"
           id="path9829" />
        <path
           inkscape:connector-curvature="0"
           d="m 19.484646,1018.6122 6.590551,4.7906"
           style="fill:none;stroke:#000000"
           id="path9831" />
        <path
           inkscape:connector-curvature="0"
           d="m 26.075197,1023.4028 5.453149,6.0519"
           style="fill:none;stroke:#000000"
           id="path9833" />
        <path
           inkscape:connector-curvature="0"
           d="m 31.528346,1029.4547 4.07126,7.0583"
           style="fill:none;stroke:#000000"
           id="path9835" />
        <path
           inkscape:connector-curvature="0"
           d="m 35.599606,1036.513 2.519292,7.7457"
           style="fill:none;stroke:#000000"
           id="path9837" />
        <path
           inkscape:connector-curvature="0"
           d="m 38.118898,1044.2587 0.850393,8.1035"
           style="fill:none;stroke:#000000"
           id="path9839" />
        <path
           inkscape:connector-curvature="0"
           d="m 38.969291,1052.3622 -0.850393,8.1035"
           style="fill:none;stroke:#000000"
           id="path9841" />
        <path
           inkscape:connector-curvature="0"
           d="m 38.118898,1060.4657 -2.519292,7.7457"
           style="fill:none;stroke:#000000"
           id="path9843" />
        <path
           inkscape:connector-curvature="0"
           d="m 35.599606,1068.2114 -4.07126,7.0583"
           style="fill:none;stroke:#000000"
           id="path9845" />
        <path
           inkscape:connector-curvature="0"
           d="m 31.528346,1075.2697 -5.453149,6.052"
           style="fill:none;stroke:#000000"
           id="path9847" />
        <path
           inkscape:connector-curvature="0"
           d="m 26.075197,1081.3217 -6.590551,4.7905"
           style="fill:none;stroke:#000000"
           id="path9849" />
        <path
           inkscape:connector-curvature="0"
           d="m 19.484646,1086.1122 -7.440945,3.313"
           style="fill:none;stroke:#000000"
           id="path9851" />
        <path
           inkscape:connector-curvature="0"
           d="m 12.043701,1089.4252 -7.968898,1.6937"
           style="fill:none;stroke:#000000"
           id="path9853" />
        <path
           inkscape:connector-curvature="0"
           d="m 4.074803,1091.1189 -8.149606,0"
           style="fill:none;stroke:#000000"
           id="path9855" />
        <path
           inkscape:connector-curvature="0"
           d="m -4.074803,1091.1189 -7.968898,-1.6937"
           style="fill:none;stroke:#000000"
           id="path9857" />
        <path
           inkscape:connector-curvature="0"
           d="m -12.043701,1089.4252 -7.440945,-3.313"
           style="fill:none;stroke:#000000"
           id="path9859" />
        <path
           inkscape:connector-curvature="0"
           d="m -19.484646,1086.1122 -6.590551,-4.7905"
           style="fill:none;stroke:#000000"
           id="path9861" />
        <path
           inkscape:connector-curvature="0"
           d="m -26.075197,1081.3217 -5.453149,-6.052"
           style="fill:none;stroke:#000000"
           id="path9863" />
        <path
           inkscape:connector-curvature="0"
           d="m -31.528346,1075.2697 -4.07126,-7.0583"
           style="fill:none;stroke:#000000"
           id="path9865" />
        <path
           inkscape:connector-curvature="0"
           d="m -35.599606,1068.2114 -2.519292,-7.7457"
           style="fill:none;stroke:#000000"
           id="path9867" />
        <path
           inkscape:connector-curvature="0"
           d="m -38.118898,1060.4657 -0.850393,-8.1035"
           style="fill:none;stroke:#000000"
           id="path9869" />
        <path
           inkscape:connector-curvature="0"
           d="m 48.699213,1107.2622 3.100393,-5.3716"
           style="fill:none;stroke:#000000"
           id="path9871" />
        <path
           inkscape:connector-curvature="0"
           d="m 51.799606,1101.8906 6.200788,0"
           style="fill:none;stroke:#000000"
           id="path9873" />
        <path
           inkscape:connector-curvature="0"
           d="m 58.000394,1101.8906 3.100393,5.3716"
           style="fill:none;stroke:#000000"
           id="path9875" />
        <path
           inkscape:connector-curvature="0"
           d="m 61.100787,1107.2622 -3.100393,5.3717"
           style="fill:none;stroke:#000000"
           id="path9877" />
        <path
           inkscape:connector-curvature="0"
           d="m 58.000394,1112.6339 -6.200788,0"
           style="fill:none;stroke:#000000"
           id="path9879" />
        <path
           inkscape:connector-curvature="0"
           d="m 51.799606,1112.6339 -3.100393,-5.3717"
           style="fill:none;stroke:#000000"
           id="path9881" />
        <path
           inkscape:connector-curvature="0"
           d="m 48.699213,997.46221 3.100393,-5.37166"
           style="fill:none;stroke:#000000"
           id="path9883" />
        <path
           inkscape:connector-curvature="0"
           d="m 51.799606,992.09055 6.200788,0"
           style="fill:none;stroke:#000000"
           id="path9885" />
        <path
           inkscape:connector-curvature="0"
           d="m 58.000394,992.09055 3.100393,5.37166"
           style="fill:none;stroke:#000000"
           id="path9887" />
        <path
           inkscape:connector-curvature="0"
           d="m 61.100787,997.46221 -3.100393,5.37169"
           style="fill:none;stroke:#000000"
           id="path9889" />
        <path
           inkscape:connector-curvature="0"
           d="m 58.000394,1002.8339 -6.200788,0"
           style="fill:none;stroke:#000000"
           id="path9891" />
        <path
           inkscape:connector-curvature="0"
           d="m 51.799606,1002.8339 -3.100393,-5.37169"
           style="fill:none;stroke:#000000"
           id="path9893" />
      </g>
    </g>
    <g
       id="g9969"
       transform="translate(94.150728,1330.6636)">
      <g
         transform="translate(-541.62594,-904.04467)"
         id="g4273">
        <path
           inkscape:connector-curvature="0"
           id="path4013"
           inkscape:label="part"
           style="fill:none;stroke:#000000"
           d="m 1073.622,184.25197 35.5926,0 0,14.17323 35.1141,0 0,-14.17323 35.752,0 0,14.17323 35.1142,0 0,-14.17323 21.4193,0" />
        <path
           inkscape:connector-curvature="0"
           id="path4015"
           inkscape:label="part"
           style="fill:none;stroke:#000000"
           d="m 1236.6142,184.25197 0,35.27362 14.1732,0 0,35.75197 -14.1732,0 0,35.11417 14.1732,0 0,35.75197 -14.1732,0 0,21.10039" />
        <path
           inkscape:connector-curvature="0"
           id="path4017"
           inkscape:label="part"
           style="fill:none;stroke:#000000"
           d="m 1236.6142,347.24409 -21.1004,0 0,14.17323 -35.752,0 0,-14.17323 -35.1142,0 0,14.17323 -35.7519,0 0,-14.17323 -35.2737,0" />
        <path
           inkscape:connector-curvature="0"
           id="path4019"
           inkscape:label="part"
           style="fill:none;stroke:#000000"
           d="m 1073.622,347.24409 0,-21.41929 14.1733,0 0,-35.11417 -14.1733,0 0,-35.75197 14.1733,0 0,-35.11417 -14.1733,0 0,-35.59252" />
      </g>
      <g
         transform="translate(442.91339,-442.91338)"
         id="g9957">
        <g
           id="g9959">
          <path
             transform="matrix(2.1719,0,0,1.08595,-784.79824,-526.40773)"
             d="m 460.62993,311.81094 c 0,19.56915 -7.93197,35.43307 -17.71654,35.43307 -9.78457,0 -17.71653,-15.86392 -17.71653,-35.43307 0,-19.56914 7.93196,-35.43307 17.71653,-35.43307 9.78457,0 17.71654,15.86393 17.71654,35.43307 z"
             sodipodi:ry="35.433071"
             sodipodi:rx="17.716536"
             sodipodi:cy="311.81094"
             sodipodi:cx="442.91339"
             id="path9961"
             style="fill:none;stroke:#000000;stroke-width:0.64832127;stroke-miterlimit:4;stroke-opacity:1;stroke-dasharray:none"
             sodipodi:type="arc" />
          <path
             transform="matrix(0.092975,0,0,0.12396667,154.10463,-180.73919)"
             d="m 318.89764,400.39362 c 0,29.35371 -31.72786,53.1496 -70.86615,53.1496 -39.13829,0 -70.86614,-23.79589 -70.86614,-53.1496 0,-29.35372 31.72785,-53.14961 70.86614,-53.14961 39.13829,0 70.86615,23.79589 70.86615,53.14961 z"
             sodipodi:ry="53.149605"
             sodipodi:rx="70.866142"
             sodipodi:cy="400.39362"
             sodipodi:cx="248.03149"
             id="path9963"
             style="fill:none;stroke:#000000;stroke-width:9.27426624;stroke-miterlimit:4;stroke-opacity:1;stroke-dasharray:none"
             sodipodi:type="arc" />
          <path
             sodipodi:type="arc"
             style="fill:none;stroke:#000000;stroke-width:9.27426624;stroke-miterlimit:4;stroke-opacity:1;stroke-dasharray:none"
             id="path9965"
             sodipodi:cx="248.03149"
             sodipodi:cy="400.39362"
             sodipodi:rx="70.866142"
             sodipodi:ry="53.149605"
             d="m 318.89764,400.39362 c 0,29.35371 -31.72786,53.1496 -70.86615,53.1496 -39.13829,0 -70.86614,-23.79589 -70.86614,-53.1496 0,-29.35372 31.72785,-53.14961 70.86614,-53.14961 39.13829,0 70.86615,23.79589 70.86615,53.14961 z"
             transform="matrix(-0.0464875,-0.08051871,0.10735828,-0.06198334,195.30026,-171.27258)" />
          <path
             transform="matrix(0.0464875,-0.08051871,-0.10735828,-0.06198334,159.01536,-171.27258)"
             d="m 318.89764,400.39362 c 0,29.35371 -31.72786,53.1496 -70.86615,53.1496 -39.13829,0 -70.86614,-23.79589 -70.86614,-53.1496 0,-29.35372 31.72785,-53.14961 70.86614,-53.14961 39.13829,0 70.86615,23.79589 70.86615,53.14961 z"
             sodipodi:ry="53.149605"
             sodipodi:rx="70.866142"
             sodipodi:cy="400.39362"
             sodipodi:cx="248.03149"
             id="path9967"
             style="fill:none;stroke:#000000;stroke-width:9.27426624;stroke-miterlimit:4;stroke-opacity:1;stroke-dasharray:none"
             sodipodi:type="arc" />
        </g>
      </g>
    </g>
  </g>
  <g
     id="g3059"
     inkscape:groupmode="layer"
     inkscape:label="newlayer" />
  <g
     inkscape:label="newlayer"
     inkscape:groupmode="layer"
     id="g3268" />
  <g
     id="g4039"
     inkscape:groupmode="layer"
     inkscape:label="newlayer" />
</svg>
